<?xml version="1.0" encoding="UTF-8"?>
<svg version="1.1" xmlns="http://www.w3.org/2000/svg" width="1024" height="1024">
<path d="M0 0 C1.69116776 0.24514052 3.38258907 0.48853629 5.07421875 0.73046875 C11.9325663 1.74151634 18.4295231 2.72319081 25 5 C27.18152663 5.48597044 29.36964076 5.94303468 31.5625 6.375 C54.69668946 11.24789497 77.06907498 20.2971109 98.06274414 31.01660156 C100.03952614 32.02006444 102.02499404 33.00467309 104.01171875 33.98828125 C115.52544468 39.74234759 126.47001672 46.34449622 137.05517578 53.65673828 C138.37870539 54.57088087 139.70533461 55.48054834 141.03466797 56.38623047 C154.49872337 65.56497921 167.06715711 75.6775064 179.23608398 86.50854492 C181.13854627 88.17444349 181.13854627 88.17444349 184 90 C184 90.66 184 91.32 184 92 C184.53109375 92.20238281 185.0621875 92.40476562 185.609375 92.61328125 C189.04217924 94.60453207 191.50896029 97.34467524 194.25 100.1875 C199.52840456 105.57388164 199.52840456 105.57388164 205.125 110.625 C212.39987717 116.82325687 219.06676679 123.7539734 225.24609375 131.03515625 C227.29138162 133.32642528 229.47678717 135.43086958 231.6875 137.5625 C236.74497904 142.61997904 240.13020215 146.570425 240.5 154 C240.20185408 160.54927203 237.8901043 164.19207415 233.125 168.75 C228.2882752 172.23244186 224.36499345 174.71082509 218.19140625 174.39453125 C206.6111527 172.30967277 199.01103329 162.65315021 191.71875 154.20703125 C187.72317167 149.62104287 183.48866297 145.29842628 179.1875 141 C178.39939941 140.20980469 177.61129883 139.41960937 176.79931641 138.60546875 C171.95211115 133.79515849 167.0831033 129.33316604 161.5546875 125.3125 C161.04164063 124.879375 160.52859375 124.44625 160 124 C160 123.34 160 122.68 160 122 C159.43539063 121.75636719 158.87078125 121.51273437 158.2890625 121.26171875 C155.57310932 119.76470019 153.62720762 117.94366063 151.375 115.8125 C147.11148603 111.8789008 142.6935967 108.57137139 137.8359375 105.41015625 C137.23007812 104.94480469 136.62421875 104.47945313 136 104 C136 103.34 136 102.68 136 102 C134.68 101.67 133.36 101.34 132 101 C132 100.34 132 99.68 132 99 C130.9790625 98.6596875 130.9790625 98.6596875 129.9375 98.3125 C126.3011291 96.68773854 122.97170737 94.67196743 120 92 C120 91.34 120 90.68 120 90 C119.42765625 89.88527344 118.8553125 89.77054687 118.265625 89.65234375 C115.78528344 88.93817644 113.93631303 87.92692128 111.75 86.5625 C110.69039062 85.91474609 110.69039062 85.91474609 109.609375 85.25390625 C109.07828125 84.84011719 108.5471875 84.42632812 108 84 C108 83.34 108 82.68 108 82 C107.43023438 81.89429688 106.86046875 81.78859375 106.2734375 81.6796875 C103.63846737 80.89191293 101.86923349 79.7077752 99.625 78.125 C96.20563651 75.72057126 92.75226989 73.84168938 89 72 C87.78465289 71.34558233 86.57258157 70.68505647 85.36328125 70.01953125 C67.10772038 60.03665763 48.07273474 52.46661712 28 47 C26.89140625 46.67 25.7828125 46.34 24.640625 46 C-4.97796528 37.72231538 -36.34832172 37.17237911 -66.6875 40.8125 C-67.37946472 40.895 -68.07142944 40.9775 -68.78436279 41.0625 C-76.20946797 41.9718506 -83.36019597 43.17461748 -90.53808594 45.29125977 C-92.83059171 45.95123044 -95.1049419 46.4692018 -97.44140625 46.9453125 C-103.07603539 48.16069837 -108.4836437 50.02844576 -113.9375 51.875 C-114.95779297 52.21402344 -115.97808594 52.55304688 -117.02929688 52.90234375 C-126.3551784 56.03279281 -135.36876585 59.50782376 -144.125 64 C-145.44010417 64.66666667 -146.75520833 65.33333333 -148.0703125 66 C-148.72088623 66.33306152 -149.37145996 66.66612305 -150.04174805 67.00927734 C-151.32335011 67.65766796 -152.61116574 68.29395467 -153.90551758 68.91650391 C-159.65411969 71.69539398 -165.02838449 74.98991545 -170.4375 78.375 C-171.32759766 78.92671875 -172.21769531 79.4784375 -173.13476562 80.046875 C-178.24183985 83.22527328 -183.2639208 86.49223236 -188.20727539 89.92041016 C-190 91 -190 91 -192 91 C-192 91.66 -192 92.32 -192 93 C-193.2965583 93.91109502 -194.60405058 94.80843972 -195.9453125 95.65234375 C-199.58159554 98.03735829 -203.02621521 100.69450898 -206.51171875 103.29296875 C-209 105 -209 105 -212 106 C-212 106.66 -212 107.32 -212 108 C-213.5390625 109.33203125 -213.5390625 109.33203125 -215.625 110.8125 C-218.30403857 112.74577783 -220.88105804 114.70823359 -223.375 116.875 C-226 119 -226 119 -228 119 C-228.495 120.485 -228.495 120.485 -229 122 C-233.45714286 126 -233.45714286 126 -236 126 C-236.38164307 126.88715698 -236.38164307 126.88715698 -236.77099609 127.79223633 C-238.13169042 130.23656663 -239.51877026 131.54353616 -241.6640625 133.32421875 C-245.67121714 136.71884345 -249.5421951 140.22288337 -253.375 143.8125 C-254.05127441 144.44196533 -254.72754883 145.07143066 -255.42431641 145.7199707 C-259.27779123 149.33628831 -263.02475993 153.02614205 -266.6875 156.8359375 C-267.86046631 158.04672974 -267.86046631 158.04672974 -269.05712891 159.28198242 C-270.56274394 160.84452981 -272.05547238 162.41963531 -273.53271484 164.0090332 C-278.74017319 169.39976812 -284.50045148 173.63500431 -292.23657227 174.1484375 C-298.25403019 173.87459843 -303.42166797 170.60386007 -307.578125 166.40625 C-310.98694368 162.40970396 -312.17660147 159.99810177 -312.3125 154.8125 C-312.34988281 153.89082031 -312.38726562 152.96914063 -312.42578125 152.01953125 C-311.16078497 143.0485026 -303.51422056 137.1081175 -297.390625 131.0625 C-296.33874958 130.01368914 -295.28747001 128.96428039 -294.23675537 127.91430664 C-292.03899824 125.72113507 -289.83644995 123.53293982 -287.62988281 121.34863281 C-284.82144055 118.56840081 -282.02167762 115.7796351 -279.22507095 112.98750305 C-276.53339019 110.30101596 -273.83706913 107.61920445 -271.140625 104.9375 C-270.63650337 104.43525909 -270.13238174 103.93301819 -269.6129837 103.41555786 C-263.90983118 97.7398691 -258.13490246 92.21050765 -252 87 C-251.424776 86.49597656 -250.849552 85.99195313 -250.25689697 85.47265625 C-246.23818116 82 -246.23818116 82 -244 82 C-243.8040625 81.43410156 -243.608125 80.86820312 -243.40625 80.28515625 C-241.43580816 77.08318826 -238.5981465 75.43012568 -235.5 73.4375 C-230.69392654 70.34295557 -230.69392654 70.34295557 -227 66 C-226.01 66 -225.02 66 -224 66 C-224 65.34 -224 64.68 -224 64 C-222.23968136 62.67752711 -220.41342875 61.44235859 -218.5625 60.25 C-216.91121094 59.17685547 -216.91121094 59.17685547 -215.2265625 58.08203125 C-214.16179687 57.39496094 -213.09703125 56.70789063 -212 56 C-210.47709226 54.98226392 -208.95600171 53.96179843 -207.4375 52.9375 C-205.95990891 51.95595735 -204.48069803 50.97684939 -203 50 C-202.195625 49.46890625 -201.39125 48.9378125 -200.5625 48.390625 C-193.18477007 43.60388356 -185.56503348 39.30333641 -177.87304688 35.04931641 C-176.05174457 34.02898829 -174.25325319 32.97506744 -172.453125 31.91796875 C-169.03325384 30.01847018 -165.60878401 28.50495626 -162 27 C-160.58051836 26.34591851 -159.16401873 25.68534034 -157.75 25.01953125 C-142.66385672 17.97879948 -127.19569867 11.94642025 -111 8 C-108.99949856 7.33483955 -106.99945822 6.66828982 -105 6 C-94.90481092 3.472895 -84.62578604 1.82428319 -74.33349609 0.34082031 C-72.23650839 0.03454339 -70.14332384 -0.29750894 -68.05078125 -0.6328125 C-46.10443865 -3.84626728 -21.87253091 -3.49939757 0 0 Z " fill="#E154FE" transform="translate(548,390)"/>
<path d="M0 0 C4.78641601 2.53114507 9.1799859 5.53090365 13.390625 8.9296875 C16.52922317 11.41989263 19.79171163 13.65550424 23.125 15.875 C24.11850464 16.53689331 24.11850464 16.53689331 25.13208008 17.2121582 C29.74646378 20.25179633 34.44078624 23.01285584 39.33984375 25.57421875 C42.21287049 27.11409358 44.96890638 28.80023705 47.75 30.5 C53.42063996 33.8348064 59.22106612 36.26353097 65.34765625 38.59765625 C68.58629979 39.84115682 71.75770889 41.17754349 74.9375 42.5625 C91.63888795 49.53818011 109.40441869 53.6174448 127.234375 56.38671875 C129.1796803 56.70353714 131.12777602 57.03251423 133.0378418 57.51855469 C147.39656741 61.04168607 164.35687691 59.1946006 179 59 C179.85271484 58.99274902 180.70542969 58.98549805 181.58398438 58.97802734 C199.72401341 58.75146898 217.78136247 54.52128973 235 49 C235.87092285 48.72285156 236.7418457 48.44570313 237.63916016 48.16015625 C254.68607768 42.70695283 271.48895364 37.07001863 287 28 C288.84768972 26.924065 290.69664317 25.85045489 292.5480957 24.78100586 C293.77901612 24.06860212 295.00689811 23.35091418 296.23120117 22.62719727 C299.10761487 20.95365498 301.69805889 19.55978854 305 19 C305 18.34 305 17.68 305 17 C307.01953125 15.5546875 307.01953125 15.5546875 309.8125 13.875 C314.93573657 10.71765653 319.77612334 7.3077367 324.58984375 3.69921875 C329.36789625 0.33057558 332.05355353 -0.35842092 337.81640625 0.46484375 C342.31377066 1.56706007 344.37970893 4.03747938 346.8125 7.8125 C348.57990703 12.55659256 348.7362345 16.1481064 346.85546875 20.87890625 C344.71973702 24.47143184 342.15004469 26.85431757 338.9375 29.4375 C338.08055542 30.14483276 338.08055542 30.14483276 337.20629883 30.86645508 C332.32647918 34.84791495 327.25325311 38.52550076 322 42 C322.40992188 42.51949219 322.81984375 43.03898438 323.2421875 43.57421875 C326.13573502 47.31921686 328.26016396 50.58349313 330 55 C330.99 55.33 331.98 55.66 333 56 C333 56.99 333 57.98 333 59 C333.66 59 334.32 59 335 59 C338.26054614 63.19816433 340.71125272 67.4512646 341.6875 72.6875 C340.61550384 77.85257243 338.40740906 81.2422892 334.1328125 84.36328125 C330.64137015 86.33995387 328.37854266 87 324.3125 87 C318.48818493 85.24171621 315.3642941 81.48927632 311.9375 76.625 C311.25558594 75.65949219 310.57367187 74.69398438 309.87109375 73.69921875 C309.25363281 72.80847656 308.63617187 71.91773438 308 71 C307.30583984 70.01966797 307.30583984 70.01966797 306.59765625 69.01953125 C304 65.27557829 304 65.27557829 304 63 C303.34 63 302.68 63 302 63 C300.68 60.69 299.36 58.38 298 56 C297.22140625 56.4125 296.4428125 56.825 295.640625 57.25 C288.43545012 60.96879994 281.14941151 64.28707701 273.625 67.3125 C272.79387695 67.64958984 271.96275391 67.98667969 271.10644531 68.33398438 C266.12367154 70.30637383 261.22733972 71.81633802 256 73 C256.32613281 73.97839844 256.65226562 74.95679688 256.98828125 75.96484375 C266.44605968 104.33817904 266.44605968 104.33817904 265 115 C262.66837682 118.57067948 259.72580272 120.13709864 256 122 C250.82062134 122.4389304 246.96993846 122.32209572 242.53515625 119.453125 C238.46032997 115.59603753 237.21304299 110.11230493 236.08984375 104.796875 C235.03257154 99.88073724 233.50936685 95.18811178 231.875 90.4375 C231.59785156 89.61958984 231.32070313 88.80167969 231.03515625 87.95898438 C230.36094863 85.97123432 229.68107796 83.98540651 229 82 C219.97656956 83.1886175 219.97656956 83.1886175 211.0234375 84.80078125 C199.61170936 87.13043508 188.62552085 87.30683193 177 87 C177.0721875 88.19753906 177.144375 89.39507813 177.21875 90.62890625 C179.06238536 122.37349102 179.06238536 122.37349102 173.625 128.8125 C169.73096693 131.85080729 165.54626972 131.63616891 160.78125 131.41796875 C157.07800769 130.86144217 155.3695211 129.90457425 153 127 C150.19424722 122.34240764 149.58751621 118.5278988 149.70703125 113.1953125 C149.71127609 112.4713327 149.71552094 111.74735291 149.71989441 111.00143433 C149.73657028 108.70889713 149.77419919 106.41726754 149.8125 104.125 C149.82756129 102.56251278 149.84124716 101.00001165 149.85351562 99.4375 C149.88643707 95.62465495 149.93813998 91.81248089 150 88 C148.22109375 87.94392578 148.22109375 87.94392578 146.40625 87.88671875 C135.63262413 87.47583642 125.55122258 86.18185409 115 84 C111.75580615 83.45282911 108.50879794 82.93460894 105.2578125 82.4296875 C103 82 103 82 101 81 C100.9071875 82.3303125 100.9071875 82.3303125 100.8125 83.6875 C100.11988557 88.59516795 98.1625496 93.00260617 96.328125 97.578125 C95.06377117 100.83569546 93.98228891 104.10412587 92.9375 107.4375 C91.0127344 113.25013873 89.44859602 117.36760265 84.1875 120.875 C79.72378812 122.45042772 76.31421715 122.98280728 71.84765625 121.0859375 C68.51657358 119.21860363 66.40631001 117.68260081 64.4375 114.375 C63.09854493 104.04591801 66.31791538 95.81452161 70.2109375 86.4296875 C72.03514142 82.02432396 73.55066267 77.54072165 75 73 C74.36835938 72.85304688 73.73671875 72.70609375 73.0859375 72.5546875 C66.13906222 70.81296373 59.77396206 68.31118167 53.23046875 65.4140625 C50.71075363 64.31111586 48.21235338 63.30014404 45.625 62.375 C42.14513886 61.05505267 38.94365919 59.51385857 35.6640625 57.76953125 C34.00301423 56.86008879 34.00301423 56.86008879 32 57 C30.19030903 59.13468589 30.19030903 59.13468589 28.3125 61.875 C27.59964844 62.87789062 26.88679688 63.88078125 26.15234375 64.9140625 C24.80677688 66.84327815 23.46499373 68.77514478 22.12890625 70.7109375 C12.29350218 84.94927301 12.29350218 84.94927301 7 87 C3.44683978 86.68831928 0.38226568 86.12742189 -3 85 C-3 84.34 -3 83.68 -3 83 C-3.8971875 82.9071875 -3.8971875 82.9071875 -4.8125 82.8125 C-7 82 -7 82 -8.6875 79.875 C-10.54787112 75.79990136 -11.81873995 72.26824383 -10.234375 67.87890625 C-8.69453796 64.74752123 -6.93669602 61.90504404 -5 59 C-4.34 59 -3.68 59 -3 59 C-2.67 57.68 -2.34 56.36 -2 55 C-1.34 55 -0.68 55 0 55 C0.20625 54.34 0.4125 53.68 0.625 53 C2.51152871 48.88393737 5.20567979 45.5412297 8 42 C7.34515625 41.55011719 6.6903125 41.10023438 6.015625 40.63671875 C0.56597272 36.79579151 -4.56522058 32.79083518 -9.5 28.3125 C-10.00370117 27.86156982 -10.50740234 27.41063965 -11.02636719 26.94604492 C-14.76424105 23.49224441 -17.64132179 20.30578849 -18.4375 15.1875 C-17.76357362 10.27746495 -16.21024924 5.9585872 -12.421875 2.6015625 C-8.21506508 -0.07033029 -4.84825994 -0.88884766 0 0 Z " fill="#7443FE" transform="translate(347,541)"/>
<path d="M0 0 C1.02391342 0.00040787 1.02391342 0.00040787 2.06851196 0.00082397 C12.83718322 0.02061845 23.34904605 0.55983554 34 2.1875 C35.69918947 2.43119384 37.39840959 2.67467403 39.09765625 2.91796875 C40.81544313 3.17219928 42.53290164 3.42865997 44.25 3.6875 C45.43082153 3.86502808 45.43082153 3.86502808 46.63549805 4.04614258 C50.94422058 4.73417611 54.86587038 5.75493667 59 7.1875 C61.18152663 7.67347044 63.36964076 8.13053468 65.5625 8.5625 C88.69668946 13.43539497 111.06907498 22.4846109 132.06274414 33.20410156 C134.03952614 34.20756444 136.02499404 35.19217309 138.01171875 36.17578125 C149.52544468 41.92984759 160.47001672 48.53199622 171.05517578 55.84423828 C172.37870539 56.75838087 173.70533461 57.66804834 175.03466797 58.57373047 C188.49872337 67.75247921 201.06715711 77.8650064 213.23608398 88.69604492 C215.13854627 90.36194349 215.13854627 90.36194349 218 92.1875 C218 92.8475 218 93.5075 218 94.1875 C218.53109375 94.38988281 219.0621875 94.59226562 219.609375 94.80078125 C223.04217924 96.79203207 225.50896029 99.53217524 228.25 102.375 C233.52840456 107.76138164 233.52840456 107.76138164 239.125 112.8125 C246.39987717 119.01075687 253.06676679 125.9414734 259.24609375 133.22265625 C261.29138162 135.51392528 263.47678717 137.61836958 265.6875 139.75 C270.74497904 144.80747904 274.13020215 148.757925 274.5 156.1875 C274.20185408 162.73677203 271.8901043 166.37957415 267.125 170.9375 C262.2882752 174.41994186 258.36499345 176.89832509 252.19140625 176.58203125 C240.6111527 174.49717277 233.01103329 164.84065021 225.71875 156.39453125 C221.72317167 151.80854287 217.48866297 147.48592628 213.1875 143.1875 C212.39939941 142.39730469 211.61129883 141.60710937 210.79931641 140.79296875 C205.95211115 135.98265849 201.0831033 131.52066604 195.5546875 127.5 C195.04164063 127.066875 194.52859375 126.63375 194 126.1875 C194 125.5275 194 124.8675 194 124.1875 C193.43539062 123.94386719 192.87078125 123.70023437 192.2890625 123.44921875 C189.57310932 121.95220019 187.62720762 120.13116063 185.375 118 C181.11148603 114.0664008 176.6935967 110.75887139 171.8359375 107.59765625 C171.23007812 107.13230469 170.62421875 106.66695313 170 106.1875 C170 105.5275 170 104.8675 170 104.1875 C168.68 103.8575 167.36 103.5275 166 103.1875 C166 102.5275 166 101.8675 166 101.1875 C165.319375 100.960625 164.63875 100.73375 163.9375 100.5 C160.3011291 98.87523854 156.97170737 96.85946743 154 94.1875 C154 93.5275 154 92.8675 154 92.1875 C153.46375 92.105 152.9275 92.0225 152.375 91.9375 C149.1647569 90.92373902 146.73707608 89.11589451 144 87.1875 C144.33 86.1975 144.66 85.2075 145 84.1875 C163.31947898 96.38617549 180.58111637 109.52898164 197 124.1875 C197.97839844 125.05375 198.95679688 125.92 199.96484375 126.8125 C208.66749621 134.64369343 216.8788702 142.96841168 225.11254883 151.28662109 C226.64084094 152.82578581 228.18179873 154.35236751 229.7265625 155.875 C233.11786328 159.32457056 236.2397696 163.00530001 239.40234375 166.6640625 C243.83881577 170.97377818 247.84161974 172.61698128 254 172.625 C259.11954156 172.49177773 262.13191858 171.7580367 266 168.1875 C269.23037426 164.51155688 270.16965025 161.2793548 270.3125 156.4375 C270.34988281 155.61765625 270.38726563 154.7978125 270.42578125 153.953125 C269.0728084 145.16500776 261.60822784 139.44750297 255.5625 133.5625 C254.61062777 132.6257111 253.65945038 131.68821563 252.70898438 130.75 C250.95339233 129.0204259 249.1947205 127.29396787 247.43188477 125.57177734 C243.34527918 121.56517257 239.31866452 117.50105954 235.3046875 113.421875 C233.49493823 111.59360491 231.68503784 109.76548439 229.875 107.9375 C228.988125 107.03386719 228.10125 106.13023437 227.1875 105.19921875 C221.85567569 99.82875803 216.3715623 94.86488993 210.44506836 90.15673828 C208.11600498 88.28092947 205.89412375 86.32992226 203.6875 84.3125 C180.1058921 63.19339629 153.10400441 47.43445514 125 33.1875 C124.28489258 32.81608887 123.56978516 32.44467773 122.83300781 32.06201172 C117.68634698 29.41394261 112.38811149 27.29172673 107 25.1875 C105.45902923 24.55747021 103.91865465 23.92598007 102.37890625 23.29296875 C73.01119471 11.47206066 40.61451425 3.96001038 8.8984375 4.08984375 C7.58082428 4.0912587 6.26321106 4.09267365 4.90567017 4.09413147 C1.43697135 4.09791272 -2.03168424 4.10770438 -5.50036621 4.11883545 C-9.05362361 4.1291451 -12.60688814 4.13364937 -16.16015625 4.13867188 C-23.10678836 4.14933151 -30.05339209 4.16635377 -37 4.1875 C-37 3.8575 -37 3.5275 -37 3.1875 C-36.37432129 3.13215088 -35.74864258 3.07680176 -35.10400391 3.01977539 C-32.27727803 2.76736101 -29.45115193 2.50875807 -26.625 2.25 C-25.64015625 2.16298828 -24.6553125 2.07597656 -23.640625 1.98632812 C-22.69960938 1.89931641 -21.75859375 1.81230469 -20.7890625 1.72265625 C-19.91975098 1.644104 -19.05043945 1.56555176 -18.15478516 1.48461914 C-12.06653217 0.64512176 -6.37163154 -0.00935823 0 0 Z " fill="#FEAEFE" transform="translate(514,387.8125)"/>
<path d="M0 0 C4.78641601 2.53114507 9.1799859 5.53090365 13.390625 8.9296875 C16.52922317 11.41989263 19.79171163 13.65550424 23.125 15.875 C24.11850464 16.53689331 24.11850464 16.53689331 25.13208008 17.2121582 C29.74646378 20.25179633 34.44078624 23.01285584 39.33984375 25.57421875 C42.21287049 27.11409358 44.96890638 28.80023705 47.75 30.5 C53.42063996 33.8348064 59.22106612 36.26353097 65.34765625 38.59765625 C68.58629979 39.84115682 71.75770889 41.17754349 74.9375 42.5625 C91.63888795 49.53818011 109.40441869 53.6174448 127.234375 56.38671875 C129.1796803 56.70353714 131.12777602 57.03251423 133.0378418 57.51855469 C147.39656741 61.04168607 164.35687691 59.1946006 179 59 C179.85271484 58.99274902 180.70542969 58.98549805 181.58398438 58.97802734 C199.72401341 58.75146898 217.78136247 54.52128973 235 49 C235.87092285 48.72285156 236.7418457 48.44570313 237.63916016 48.16015625 C254.68607768 42.70695283 271.48895364 37.07001863 287 28 C288.84768972 26.924065 290.69664317 25.85045489 292.5480957 24.78100586 C293.77901612 24.06860212 295.00689811 23.35091418 296.23120117 22.62719727 C299.10761487 20.95365498 301.69805889 19.55978854 305 19 C305 18.34 305 17.68 305 17 C307.01953125 15.5546875 307.01953125 15.5546875 309.8125 13.875 C314.93573657 10.71765653 319.77612334 7.3077367 324.58984375 3.69921875 C329.36789625 0.33057558 332.05355353 -0.35842092 337.81640625 0.46484375 C342.31377066 1.56706007 344.37970893 4.03747938 346.8125 7.8125 C348.57867588 12.5532879 348.73363793 16.14447588 346.86328125 20.875 C344.69886721 24.50504451 342.06825732 26.89762954 338.8125 29.5 C337.94347046 30.2101123 337.94347046 30.2101123 337.05688477 30.93457031 C335.90512299 31.871129 334.7492145 32.80261526 333.58886719 33.72851562 C332.2147894 34.82811567 330.85944947 35.95105467 329.5078125 37.078125 C328.82460938 37.62984375 328.14140625 38.1815625 327.4375 38.75 C326.85871094 39.21921875 326.27992188 39.6884375 325.68359375 40.171875 C323.44423125 41.27337117 322.33305022 40.67938326 320 40 C320.44802979 39.66790527 320.89605957 39.33581055 321.35766602 38.99365234 C323.42792543 37.45675061 325.49521568 35.91590091 327.5625 34.375 C328.61920898 33.59189453 328.61920898 33.59189453 329.69726562 32.79296875 C339.41738185 26.42688347 339.41738185 26.42688347 345 17 C345.05067107 12.78585602 344.72501689 9.91211803 342.0625 6.5625 C338.81740008 4.10409097 336.37574782 3.54486575 332.26074219 3.60693359 C327.85794697 4.37243039 324.63068861 7.18305008 321.125 9.8125 C319.43997072 11.01778457 317.75241149 12.21953905 316.0625 13.41796875 C315.21558594 14.02302246 314.36867188 14.62807617 313.49609375 15.25146484 C271.55282124 44.63308825 218.81713669 62.54646481 167.5 62.3125 C166.66684265 62.31067719 165.8336853 62.30885437 164.97528076 62.30697632 C151.4499496 62.257321 138.31893499 61.49624412 125 59 C124.02466309 58.82307617 123.04932617 58.64615234 122.04443359 58.46386719 C94.91134672 53.45667761 69.36975676 44.98196518 45 32 C44.28102539 31.62117676 43.56205078 31.24235352 42.82128906 30.85205078 C29.80308013 23.95889503 17.32383091 16.34056122 6 6.875 C1.92010468 3.64993989 -0.76633974 2.74260687 -6 3 C-11.00613552 5.36138468 -12.90243407 7.96584176 -15 13 C-15.66666667 14.33333333 -16.33333333 15.66666667 -17 17 C-18.3221454 13.47427893 -17.97428847 11.279637 -16.5 7.9375 C-12.99484598 1.56558771 -7.29171475 -1.33681437 0 0 Z " fill="#CD6CFE" transform="translate(347,541)"/>
<path d="M0 0 C-3.2590967 3.2590967 -7.60025762 4.4827039 -11.875 6.0625 C-14.16785238 6.80419312 -14.16785238 6.80419312 -15 9 C-17.109375 9.67578125 -17.109375 9.67578125 -19.75 10.3125 C-24.42084345 11.61180738 -26.78188242 13.29428884 -30 17 C-33 18 -33 18 -35 18 C-39.56079749 20.31321003 -39.56079749 20.31321003 -43.47265625 23.51171875 C-45.69343191 25.67569708 -48.26615641 26.66643473 -51.0625 27.9375 C-53.0980845 29.05378827 -54.39009955 30.34858349 -56 32 C-56.598125 32.12375 -57.19625 32.2475 -57.8125 32.375 C-62.05400111 33.58685746 -65.2014496 37.13098927 -68.125 40.3125 C-70 42 -70 42 -74 42 C-74.226875 42.763125 -74.45375 43.52625 -74.6875 44.3125 C-76.55947475 48.14559115 -79.21853313 49.1379999 -82.9375 50.9375 C-88.30730458 53.58175012 -88.30730458 53.58175012 -92 58 C-92.78375 58.433125 -93.5675 58.86625 -94.375 59.3125 C-97.15353172 60.81874984 -97.15353172 60.81874984 -98.5 63.5625 C-100 66 -100 66 -102.5625 67 C-103.7690625 67.495 -103.7690625 67.495 -105 68 C-105.68753301 69.65816784 -106.35561283 71.32459336 -107 73 C-108.32488113 73.36548445 -109.66018514 73.6937566 -111 74 C-113.7295585 76.47906969 -113.7295585 76.47906969 -116 79 C-115.67 79.99 -115.34 80.98 -115 82 C-115.928125 82.020625 -116.85625 82.04125 -117.8125 82.0625 C-121.00696214 82.62844359 -121.00696214 82.62844359 -122.06640625 84.625 C-122.79974771 86.38218533 -123.40775925 88.19037549 -124 90 C-124.99 89.505 -124.99 89.505 -126 89 C-129.79791412 91.66135201 -129.79791412 91.66135201 -132 95.625 C-132.33 96.40875 -132.66 97.1925 -133 98 C-133.845625 98.309375 -134.69125 98.61875 -135.5625 98.9375 C-136.366875 99.288125 -137.17125 99.63875 -138 100 C-138.89830839 103.05272465 -138.89830839 103.05272465 -139 106 C-142.465 106.99 -142.465 106.99 -146 108 C-146.33 109.98 -146.66 111.96 -147 114 C-147.928125 114.0825 -148.85625 114.165 -149.8125 114.25 C-153.08509879 114.70257552 -153.08509879 114.70257552 -154.875 117.0625 C-155.24625 117.701875 -155.6175 118.34125 -156 119 C-155.67 119.66 -155.34 120.32 -155 121 C-156.175625 121.4021875 -156.175625 121.4021875 -157.375 121.8125 C-160.28114923 122.84814432 -160.28114923 122.84814432 -162 126 C-162.35293451 128.18028396 -162.35293451 128.18028396 -162.3125 130.5 C-162.32925781 131.2734375 -162.34601563 132.046875 -162.36328125 132.84375 C-161.91092894 135.52867986 -161.13658295 136.35878405 -159 138 C-158.01 138.33 -157.02 138.66 -156 139 C-155.72414062 139.81855469 -155.44828125 140.63710938 -155.1640625 141.48046875 C-154.77992188 142.31191406 -154.39578125 143.14335938 -154 144 C-151.37633717 145.03770677 -151.37633717 145.03770677 -148.375 145.3125 C-146.87066406 145.52326172 -146.87066406 145.52326172 -145.3359375 145.73828125 C-144.17964844 145.86783203 -144.17964844 145.86783203 -143 146 C-143 146.33 -143 146.66 -143 147 C-148.7575987 147.34545592 -153.08040341 147.38905543 -158 144 C-162.3085997 139.72174255 -164.95562221 136.61828986 -165.0625 130.3125 C-165.0315625 128.6728125 -165.0315625 128.6728125 -165 127 C-165.33 129.64 -165.66 132.28 -166 135 C-166.33 135 -166.66 135 -167 135 C-167.57236326 124.08270086 -167.57236326 124.08270086 -164 120 C-163.39774597 119.7182341 -162.79549194 119.4364682 -162.17498779 119.14616394 C-159.42955913 117.69939199 -157.63445174 115.8664055 -155.45019531 113.66137695 C-154.55536438 112.76316727 -153.66053345 111.86495758 -152.73858643 110.93952942 C-151.76840705 109.95580524 -150.79825391 108.97205519 -149.828125 107.98828125 C-148.82218927 106.97606704 -147.81573125 105.96437162 -146.80877686 104.95317078 C-144.15750978 102.28860986 -141.51185691 99.61854994 -138.86779785 96.94683838 C-134.65197243 92.68790993 -130.42956721 88.43553506 -126.20363617 84.18663597 C-124.73901601 82.71191967 -123.27793471 81.23376654 -121.81719971 79.75520325 C-116.71456317 74.61584263 -111.53091614 69.67558824 -106 65 C-104.95559799 64.09911038 -103.91132145 63.19807528 -102.8671875 62.296875 C-76.68891221 40.01458324 -48.8024642 21.35524111 -18 6 C-17.20110352 5.5992627 -16.40220703 5.19852539 -15.57910156 4.78564453 C-3.5797862 -1.19326207 -3.5797862 -1.19326207 0 0 Z " fill="#B045FC" transform="translate(403,414)"/>
<path d="M0 0 C0 0.66 0 1.32 0 2 C-0.54076172 2.08975098 -1.08152344 2.17950195 -1.63867188 2.27197266 C-63.47885985 12.67802273 -119.18314154 39.04954545 -167.15478516 79.45898438 C-169.59102631 81.49359064 -172.0782448 83.46197867 -174.5625 85.4375 C-189.48144447 97.68840359 -202.90183698 111.77244421 -216.5 125.4375 C-218.30575226 127.24828357 -220.11174053 129.05883182 -221.91796875 130.86914062 C-226.28136055 135.24339439 -230.64186732 139.62050678 -235 144 C-235.33 143.01 -235.66 142.02 -236 141 C-229.88274767 134.8594707 -223.76271864 128.72172583 -217.63922882 122.58741665 C-214.7952511 119.73824347 -211.95220143 116.8881575 -209.11132812 114.03588867 C-206.36437066 111.27798281 -203.6149033 108.52260139 -200.86375427 105.76887703 C-199.82002424 104.72331412 -198.77716743 103.67687868 -197.73524475 102.62951469 C-192.0021523 96.86770408 -186.20618356 91.25462802 -180 86 C-179.42495728 85.49629379 -178.84991455 84.99258759 -178.25744629 84.47361755 C-174.23900426 81 -174.23900426 81 -172 81 C-171.8040625 80.43410156 -171.608125 79.86820312 -171.40625 79.28515625 C-169.43580816 76.08318826 -166.5981465 74.43012568 -163.5 72.4375 C-158.69392654 69.34295557 -158.69392654 69.34295557 -155 65 C-154.01 65 -153.02 65 -152 65 C-152 64.34 -152 63.68 -152 63 C-150.23968136 61.67752711 -148.41342875 60.44235859 -146.5625 59.25 C-144.91121094 58.17685547 -144.91121094 58.17685547 -143.2265625 57.08203125 C-142.16179687 56.39496094 -141.09703125 55.70789063 -140 55 C-138.47709226 53.98226392 -136.95600171 52.96179843 -135.4375 51.9375 C-133.95990891 50.95595735 -132.48069803 49.97684939 -131 49 C-130.195625 48.46890625 -129.39125 47.9378125 -128.5625 47.390625 C-121.18477007 42.60388356 -113.56503348 38.30333641 -105.87304688 34.04931641 C-104.05174457 33.02898829 -102.25325319 31.97506744 -100.453125 30.91796875 C-97.03325384 29.01847018 -93.60878401 27.50495626 -90 26 C-88.58051836 25.34591851 -87.16401873 24.68534034 -85.75 24.01953125 C-70.66385672 16.97879948 -55.19569867 10.94642025 -39 7 C-36.9997479 6.3340901 -34.99973069 5.66747404 -33 5 C-22.3428416 2.33237587 -11.02599309 0 0 0 Z " fill="#F276FE" transform="translate(476,391)"/>
<path d="M0 0 C3.57284148 8.31272635 6.00210835 16.77019955 8.26757812 25.51757812 C9.88350467 31.37854741 11.09583217 35.26007364 16 39 C19.50033413 40.75016707 23.27738978 39.83609427 27 39 C30.44351867 36.79261624 31.25675219 34.56758512 32.25 30.75 C32.62125 28.89375 32.62125 28.89375 33 27 C33.33 27 33.66 27 34 27 C34.4346406 30.10457569 34.5889479 32.90928194 34 36 C31.5504556 39.12461569 28.53151185 41.23424407 25 43 C19.82062134 43.4389304 15.96993846 43.32209572 11.53515625 40.453125 C7.46032997 36.59603753 6.21304299 31.11230493 5.08984375 25.796875 C4.03257154 20.88073724 2.50936685 16.18811178 0.875 11.4375 C0.45927734 10.21063477 0.45927734 10.21063477 0.03515625 8.95898438 C-0.63905137 6.97123432 -1.31892204 4.98540651 -2 3 C-11.02343044 4.1886175 -11.02343044 4.1886175 -19.9765625 5.80078125 C-31.38829064 8.13043508 -42.37447915 8.30683193 -54 8 C-53.89171875 9.79630859 -53.89171875 9.79630859 -53.78125 11.62890625 C-51.93761464 43.37349102 -51.93761464 43.37349102 -57.375 49.8125 C-61.26903307 52.85080729 -65.45373028 52.63616891 -70.21875 52.41796875 C-73.92199231 51.86144217 -75.6304789 50.90457425 -78 48 C-80.80575278 43.34240764 -81.41248379 39.5278988 -81.29296875 34.1953125 C-81.28872391 33.4713327 -81.28447906 32.74735291 -81.28010559 32.00143433 C-81.26342972 29.70889713 -81.22580081 27.41726754 -81.1875 25.125 C-81.17243871 23.56251278 -81.15875284 22.00001165 -81.14648438 20.4375 C-81.11356293 16.62465495 -81.06186002 12.81248089 -81 9 C-82.77890625 8.94392578 -82.77890625 8.94392578 -84.59375 8.88671875 C-94.11611291 8.52268077 -103.17541588 7.62390819 -112.5078125 5.69921875 C-116.670655 4.86571897 -120.77458027 4.37726962 -125 4 C-125 3.34 -125 2.68 -125 2 C-125.66 1.67 -126.32 1.34 -127 1 C-122.74101719 1.51147138 -118.49723675 2.06414569 -114.2578125 2.71875 C-104.66832477 4.1859686 -95.21787061 5.37402821 -85.51025391 5.62109375 C-80.20251235 5.79748765 -80.20251235 5.79748765 -78 8 C-77.86145368 10.44067727 -77.84074818 12.76677595 -77.91015625 15.203125 C-77.93059141 16.67317359 -77.95076532 18.14322583 -77.97070312 19.61328125 C-78.01406526 21.9283784 -78.06234184 24.24323438 -78.11645508 26.55810547 C-78.16501851 28.7939371 -78.19471116 31.02945402 -78.22265625 33.265625 C-78.24441422 33.9502179 -78.26617218 34.63481079 -78.28858948 35.34014893 C-78.33600699 39.97956082 -77.48148021 43.08320701 -75 47 C-70.76032983 49.82644678 -66.97913141 49.65911947 -62 49 C-58.44319828 46.89495409 -57.30531064 45.91593192 -56 42 C-55.92691706 39.35257048 -55.90809988 36.73234061 -55.9375 34.0859375 C-55.94128662 33.31569244 -55.94507324 32.54544739 -55.94897461 31.75186157 C-55.96119035 29.29285092 -55.97982886 26.8339575 -56 24.375 C-56.02648225 21.13281587 -56.04652099 17.89068844 -56.0625 14.6484375 C-56.07494751 13.52192276 -56.07494751 13.52192276 -56.08764648 12.37265015 C-56.09620898 10.58154894 -56.05332324 8.79032775 -56 7 C-54.29093588 5.29093588 -52.00498878 5.70880886 -49.6640625 5.5703125 C-48.54523682 5.49868896 -47.42641113 5.42706543 -46.27368164 5.35327148 C-45.0696167 5.27794189 -43.86555176 5.2026123 -42.625 5.125 C-24.55286594 3.92527917 -24.55286594 3.92527917 -6.80859375 0.41015625 C-4.51511548 -0.10996301 -2.34509352 -0.02518511 0 0 Z " fill="#C669FE" transform="translate(578,620)"/>
<path d="M0 0 C-0.66 0 -1.32 0 -2 0 C-2 0.66 -2 1.32 -2 2 C-2.52843506 2.24121582 -3.05687012 2.48243164 -3.60131836 2.73095703 C-16.14886457 8.32780796 -16.14886457 8.32780796 -27.8359375 15.47265625 C-30.64364676 17.45427054 -33.56387112 19.21469865 -36.5 21 C-41.19470097 23.86195135 -45.78373406 26.82316142 -50.29296875 29.96875 C-52 31 -52 31 -54 31 C-54 31.66 -54 32.32 -54 33 C-55.2965583 33.91109502 -56.60405058 34.80843972 -57.9453125 35.65234375 C-61.58159554 38.03735829 -65.02621521 40.69450898 -68.51171875 43.29296875 C-71 45 -71 45 -74 46 C-74 46.66 -74 47.32 -74 48 C-75.5390625 49.33203125 -75.5390625 49.33203125 -77.625 50.8125 C-80.30403857 52.74577783 -82.88105804 54.70823359 -85.375 56.875 C-88 59 -88 59 -90 59 C-90.33 59.99 -90.66 60.98 -91 62 C-95.45714286 66 -95.45714286 66 -98 66 C-98.38164307 66.88715698 -98.38164307 66.88715698 -98.77099609 67.79223633 C-100.13169042 70.23656663 -101.51877026 71.54353616 -103.6640625 73.32421875 C-107.67121714 76.71884345 -111.5421951 80.22288337 -115.375 83.8125 C-116.05127441 84.44196533 -116.72754883 85.07143066 -117.42431641 85.7199707 C-121.27779123 89.33628831 -125.02475993 93.02614205 -128.6875 96.8359375 C-129.46947754 97.64313232 -130.25145508 98.45032715 -131.05712891 99.28198242 C-132.56274394 100.84452981 -134.05547238 102.41963531 -135.53271484 104.0090332 C-140.74017319 109.39976812 -146.50045148 113.63500431 -154.23657227 114.1484375 C-160.26195435 113.87423782 -165.37481548 110.59269462 -169.578125 106.44140625 C-171.67051061 104.03035271 -172.98570233 102.042893 -174 99 C-173.73046875 96.1171875 -173.73046875 96.1171875 -173.1875 92.875 C-173.01605469 91.79992187 -172.84460938 90.72484375 -172.66796875 89.6171875 C-172.44753906 88.75351562 -172.22710937 87.88984375 -172 87 C-171.01 86.505 -171.01 86.505 -170 86 C-170.165 86.680625 -170.33 87.36125 -170.5 88.0625 C-171.54848043 94.2223225 -171.47431302 98.67272004 -168 104 C-164.05872808 107.99511443 -160.46981196 110.12225411 -154.8125 110.3125 C-153.73935547 110.36857422 -153.73935547 110.36857422 -152.64453125 110.42578125 C-145.3150453 109.24570153 -140.13761048 104.70166642 -135.15625 99.51171875 C-134.54285767 98.89029495 -133.92946533 98.26887115 -133.29748535 97.62861633 C-131.35519706 95.65758052 -129.4271108 93.67336712 -127.5 91.6875 C-124.95215091 89.08306756 -122.39885386 86.4840325 -119.84375 83.88671875 C-119.23569016 83.26720337 -118.62763031 82.64768799 -118.00114441 82.00939941 C-113.83760031 77.78808552 -109.53319589 73.82238536 -105 70 C-103.04457655 68.22707043 -101.11902652 66.42415617 -99.1875 64.625 C-93.64678073 59.50825241 -87.88979249 54.71183399 -82 50 C-81.26007813 49.3915625 -80.52015625 48.783125 -79.7578125 48.15625 C-65.86163164 36.80850369 -51.22526263 26.47523692 -36 17 C-35.37174316 16.60474121 -34.74348633 16.20948242 -34.09619141 15.80224609 C-26.66216709 11.13864135 -19.06381007 6.87138211 -11.25 2.875 C-10.47470947 2.47200684 -9.69941895 2.06901367 -8.90063477 1.65380859 C-8.17545654 1.29109863 -7.45027832 0.92838867 -6.703125 0.5546875 C-5.73874512 0.06718018 -5.73874512 0.06718018 -4.75488281 -0.43017578 C-3 -1 -3 -1 0 0 Z " fill="#FD87FE" transform="translate(410,450)"/>
<path d="M0 0 C4.78641601 2.53114507 9.1799859 5.53090365 13.390625 8.9296875 C16.52922317 11.41989263 19.79171163 13.65550424 23.125 15.875 C24.11850464 16.53689331 24.11850464 16.53689331 25.13208008 17.2121582 C29.74646378 20.25179633 34.44078624 23.01285584 39.33984375 25.57421875 C42.21287049 27.11409358 44.96890638 28.80023705 47.75 30.5 C53.42063996 33.8348064 59.22106612 36.26353097 65.34765625 38.59765625 C68.58629979 39.84115682 71.75770889 41.17754349 74.9375 42.5625 C91.63888795 49.53818011 109.40441869 53.6174448 127.234375 56.38671875 C129.18038983 56.7036527 131.1291515 57.03282884 133.04003906 57.51855469 C147.75228685 61.13247505 165.00174889 59.10345817 180 59 C180 59.66 180 60.32 180 61 C155.77493819 61.58466843 132.74578056 61.42246331 109 56 C108.00564941 55.77538086 107.01129883 55.55076172 105.98681641 55.31933594 C86.20542485 50.70087681 66.80983309 43.61671617 48.90527344 34.00927734 C46.92327849 32.95935844 44.92241137 31.95552436 42.9140625 30.95703125 C28.9913273 23.94799965 16.11298289 15.303098 4.0612793 5.4230957 C0.56105934 3.00656341 -1.74966333 2.79096705 -6 3 C-11.00613552 5.36138468 -12.90243407 7.96584176 -15 13 C-15.66666667 14.33333333 -16.33333333 15.66666667 -17 17 C-18.3221454 13.47427893 -17.97428847 11.279637 -16.5 7.9375 C-12.99484598 1.56558771 -7.29171475 -1.33681437 0 0 Z " fill="#C46DFF" transform="translate(347,541)"/>
<path d="M0 0 C1.02391342 0.00040787 1.02391342 0.00040787 2.06851196 0.00082397 C12.83718322 0.02061845 23.34904605 0.55983554 34 2.1875 C35.69918947 2.43119384 37.39840959 2.67467403 39.09765625 2.91796875 C40.81544313 3.17219928 42.53290164 3.42865997 44.25 3.6875 C45.43082153 3.86502808 45.43082153 3.86502808 46.63549805 4.04614258 C50.94422058 4.73417611 54.86587038 5.75493667 59 7.1875 C61.18152663 7.67347044 63.36964076 8.13053468 65.5625 8.5625 C89.45903854 13.59597318 112.33756045 23.10886657 134 34.1875 C131.32068688 35.52715656 129.74534113 34.76738315 126.98046875 33.91796875 C124.28946991 32.92543072 121.80382042 31.6350251 119.26538086 30.30664062 C116.98611824 29.18064215 114.6937916 28.22268052 112.328125 27.29296875 C109.00260036 25.98041385 105.68614974 24.65087693 102.37890625 23.29296875 C73.01119471 11.47206066 40.61451425 3.96001038 8.8984375 4.08984375 C7.58082428 4.0912587 6.26321106 4.09267365 4.90567017 4.09413147 C1.43697135 4.09791272 -2.03168424 4.10770438 -5.50036621 4.11883545 C-9.05362361 4.1291451 -12.60688814 4.13364937 -16.16015625 4.13867188 C-23.10678836 4.14933151 -30.05339209 4.16635377 -37 4.1875 C-37 3.8575 -37 3.5275 -37 3.1875 C-36.37432129 3.13215088 -35.74864258 3.07680176 -35.10400391 3.01977539 C-32.27727803 2.76736101 -29.45115193 2.50875807 -26.625 2.25 C-25.64015625 2.16298828 -24.6553125 2.07597656 -23.640625 1.98632812 C-22.69960938 1.89931641 -21.75859375 1.81230469 -20.7890625 1.72265625 C-19.91975098 1.644104 -19.05043945 1.56555176 -18.15478516 1.48461914 C-12.06653217 0.64512176 -6.37163154 -0.00935823 0 0 Z " fill="#FE86FE" transform="translate(514,387.8125)"/>
<path d="M0 0 C0.99 0.99 0.99 0.99 2 2 C-2.54380594 2.25243366 -6.0873497 2.10766403 -10.3984375 0.625 C-37.00786981 -7.64245916 -67.41178588 -6.4600638 -94.6875 -3.1875 C-95.37946472 -3.105 -96.07142944 -3.0225 -96.78436279 -2.9375 C-104.20964197 -2.02812809 -111.36057766 -0.82544171 -118.53857422 1.29150391 C-120.82845281 1.95062191 -123.09964777 2.46689118 -125.43359375 2.94140625 C-131.11582623 4.16634135 -136.56539123 6.0685516 -142.0625 7.9375 C-143.09955078 8.28490234 -144.13660156 8.63230469 -145.20507812 8.99023438 C-149.7014745 10.50423975 -154.15602447 12.04713064 -158.55859375 13.81640625 C-162 15 -162 15 -165 14 C-120.99513122 -11.12909612 -47.46578257 -17.55381437 0 0 Z " fill="#FD7AFE" transform="translate(576,434)"/>
<path d="M0 0 C6.99286345 3.51409047 13.06700215 7.89956874 19.25341797 12.66845703 C21.14521878 14.11071054 23.05635292 15.52407378 24.97265625 16.93359375 C31.75781077 21.93512121 38.33780194 26.96321857 44.49804688 32.73535156 C46.92188578 34.92929474 49.42122991 36.94941607 51.98828125 38.97265625 C58.73193953 44.46107719 64.78101649 50.55977658 70.875 56.75 C71.98649985 57.87156896 73.09847712 58.992665 74.2109375 60.11328125 C76.24758081 62.16605375 78.28144268 64.22149288 80.31201172 66.28027344 C82.09810964 68.08746062 83.89211901 69.88686412 85.6940918 71.67822266 C89.11045491 75.118097 92.23288554 78.80983588 95.40234375 82.4765625 C99.39880084 86.3588351 103.32654413 88.26716243 108.875 88.6875 C109.65617188 88.75324219 110.43734375 88.81898438 111.2421875 88.88671875 C111.82226562 88.92410156 112.40234375 88.96148438 113 89 C111.68 89.33 110.36 89.66 109 90 C109 90.66 109 91.32 109 92 C97.06872829 91.10515462 89.04524284 80.70173307 81.7421875 72.23828125 C77.73987986 67.64035673 73.49814757 63.30790485 69.1875 59 C68.39939941 58.20980469 67.61129883 57.41960938 66.79931641 56.60546875 C61.95211115 51.79515849 57.0831033 47.33316604 51.5546875 43.3125 C51.04164063 42.879375 50.52859375 42.44625 50 42 C50 41.34 50 40.68 50 40 C49.43539062 39.75636719 48.87078125 39.51273437 48.2890625 39.26171875 C45.57310932 37.76470019 43.62720762 35.94366063 41.375 33.8125 C37.11148603 29.8789008 32.6935967 26.57137139 27.8359375 23.41015625 C27.23007812 22.94480469 26.62421875 22.47945313 26 22 C26 21.34 26 20.68 26 20 C24.68 19.67 23.36 19.34 22 19 C22 18.34 22 17.68 22 17 C21.319375 16.773125 20.63875 16.54625 19.9375 16.3125 C16.3011291 14.68773854 12.97170737 12.67196743 10 10 C10 9.34 10 8.68 10 8 C9.46375 7.9175 8.9275 7.835 8.375 7.75 C5.10209837 6.71645212 2.70530621 5.09046389 0 3 C0 2.01 0 1.02 0 0 Z " fill="#FE9BFE" transform="translate(658,472)"/>
<path d="M0 0 C2.67456717 0.37792797 3.80611814 0.79766916 5.703125 2.77734375 C6.21359375 3.49019531 6.7240625 4.20304688 7.25 4.9375 C8.03117188 6.00291016 8.03117188 6.00291016 8.828125 7.08984375 C10 9 10 9 10 11 C10.99 11.33 11.98 11.66 13 12 C13 12.99 13 13.98 13 15 C13.66 15 14.32 15 15 15 C18.26054614 19.19816433 20.71125272 23.4512646 21.6875 28.6875 C20.61550384 33.85257243 18.40740906 37.2422892 14.1328125 40.36328125 C10.64137015 42.33995387 8.37854266 43 4.3125 43 C-1.51181507 41.24171621 -4.6357059 37.48927632 -8.0625 32.625 C-9.08537109 31.17673828 -9.08537109 31.17673828 -10.12890625 29.69921875 C-11.05509766 28.36310547 -11.05509766 28.36310547 -12 27 C-12.46277344 26.34644531 -12.92554688 25.69289063 -13.40234375 25.01953125 C-16 21.27557829 -16 21.27557829 -16 19 C-16.66 19 -17.32 19 -18 19 C-19.32 16.69 -20.64 14.38 -22 12 C-22.77859375 12.4125 -23.5571875 12.825 -24.359375 13.25 C-31.546733 16.95960413 -38.82618519 20.31000148 -46.3125 23.375 C-47.13524414 23.72046875 -47.95798828 24.0659375 -48.80566406 24.421875 C-54.26558717 26.61373494 -59.12753011 27.58769018 -65 28 C-61.9815476 25.9876984 -59.24350604 24.83719878 -55.86328125 23.5390625 C-54.64576172 23.06726563 -53.42824219 22.59546875 -52.17382812 22.109375 C-50.2501442 21.36910217 -48.32595282 20.63016319 -46.40161133 19.89160156 C-37.68317491 16.57461148 -37.68317491 16.57461148 -29.23046875 12.6484375 C-26 11 -26 11 -24 11 C-24 10.34 -24 9.68 -24 9 C-21.38899281 9.36561835 -20.24950241 9.72151518 -18.46362305 11.71484375 C-17.98449463 12.44832031 -17.50536621 13.18179688 -17.01171875 13.9375 C-16.46966797 14.75089844 -15.92761719 15.56429687 -15.36914062 16.40234375 C-14.81419922 17.25957031 -14.25925781 18.11679687 -13.6875 19 C-7.20944718 30.40969387 -7.20944718 30.40969387 2 39 C8.10397596 39.50866466 11.10769166 39.05703618 16 35 C17.87761052 31.24477895 17.94686686 27.98564886 17 24 C14.07745617 19.00636213 10.59649303 14.52203159 7 10 C6.26652344 9.05511719 5.53304687 8.11023438 4.77734375 7.13671875 C3.5892985 5.60714099 2.39161732 4.08494233 1.1796875 2.57421875 C0 1 0 1 0 0 Z " fill="#CF67FE" transform="translate(667,585)"/>
<path d="M0 0 C-1.39317541 3.23853726 -2.96166429 5.08111483 -5.6640625 7.32421875 C-9.67121714 10.71884345 -13.5421951 14.22288337 -17.375 17.8125 C-18.05127441 18.44196533 -18.72754883 19.07143066 -19.42431641 19.7199707 C-23.27779123 23.33628831 -27.02475993 27.02614205 -30.6875 30.8359375 C-31.46947754 31.64313232 -32.25145508 32.45032715 -33.05712891 33.28198242 C-34.56274394 34.84452981 -36.05547238 36.41963531 -37.53271484 38.0090332 C-42.74017319 43.39976812 -48.50045148 47.63500431 -56.23657227 48.1484375 C-62.26195435 47.87423782 -67.37481548 44.59269462 -71.578125 40.44140625 C-73.67051061 38.03035271 -74.98570233 36.042893 -76 33 C-75.73046875 30.1171875 -75.73046875 30.1171875 -75.1875 26.875 C-75.01605469 25.79992187 -74.84460938 24.72484375 -74.66796875 23.6171875 C-74.44753906 22.75351562 -74.22710937 21.88984375 -74 21 C-73.34 20.67 -72.68 20.34 -72 20 C-72.2475 21.0209375 -72.2475 21.0209375 -72.5 22.0625 C-73.54848043 28.2223225 -73.47431302 32.67272004 -70 38 C-66.05872808 41.99511443 -62.46981196 44.12225411 -56.8125 44.3125 C-55.73935547 44.36857422 -55.73935547 44.36857422 -54.64453125 44.42578125 C-47.3150453 43.24570153 -42.13761048 38.70166642 -37.15625 33.51171875 C-36.54285767 32.89029495 -35.92946533 32.26887115 -35.29748535 31.62861633 C-33.35519706 29.65758052 -31.4271108 27.67336712 -29.5 25.6875 C-26.95215076 23.08306741 -24.39875056 20.48413426 -21.84375 17.88671875 C-21.238228 17.26933334 -20.63270599 16.65194794 -20.00883484 16.01585388 C-16.30081871 12.25419811 -12.5217825 8.64321721 -8.46606445 5.25292969 C-6.79551676 3.86936291 -6.79551676 3.86936291 -4.6875 1.5625 C-3 0 -3 0 0 0 Z " fill="#FA80FF" transform="translate(312,516)"/>
<path d="M0 0 C0.99 0.33 1.98 0.66 3 1 C2.52691406 1.57105469 2.05382812 2.14210938 1.56640625 2.73046875 C-0.65943958 5.45962475 -2.83783326 8.22007134 -5 11 C-5.41652832 11.5347998 -5.83305664 12.06959961 -6.26220703 12.62060547 C-12.16795602 19.81939562 -12.16795602 19.81939562 -14.875 28.4375 C-13.76220475 32.96816638 -12.31879544 34.7602235 -9 38 C-5.81929763 39.59035119 -2.41669549 39.78937448 1 39 C6.0547793 35.47451136 9.19645301 31.29179094 12.5625 26.1875 C13.01818359 25.51396484 13.47386719 24.84042969 13.94335938 24.14648438 C16.73565338 19.99577708 19.37286487 15.77844837 21.90209961 11.4621582 C22.26440674 10.979646 22.62671387 10.49713379 23 10 C23.66 10 24.32 10 25 10 C24.38677606 13.9859556 22.30070732 16.80274198 20 20 C19.09314453 21.26263672 19.09314453 21.26263672 18.16796875 22.55078125 C16.79095602 24.45437629 15.40666925 26.35272796 14.015625 28.24609375 C12.7799569 29.93436121 11.5578076 31.63275626 10.359375 33.34765625 C7.39429026 37.52218344 4.75262504 40.769176 0 43 C-3.65750956 42.81402494 -6.53854045 42.15381985 -10 41 C-10 40.34 -10 39.68 -10 39 C-10.8971875 38.9071875 -10.8971875 38.9071875 -11.8125 38.8125 C-14 38 -14 38 -15.6875 35.875 C-17.54787112 31.79990136 -18.81873995 28.26824383 -17.234375 23.87890625 C-15.69453796 20.74752123 -13.93669602 17.90504404 -12 15 C-11.34 15 -10.68 15 -10 15 C-9.67 13.68 -9.34 12.36 -9 11 C-8.34 11 -7.68 11 -7 11 C-6.773125 10.29875 -6.54625 9.5975 -6.3125 8.875 C-4.68343133 5.30656387 -2.59359269 2.93485489 0 0 Z " fill="#BB5FFE" transform="translate(354,585)"/>
<path d="M0 0 C0.33 0.66 0.66 1.32 1 2 C0.0355414 4.34824702 -0.96514123 6.68191636 -2 9 C-2 9.66 -2 10.32 -2 11 C-4.31 11.66 -6.62 12.32 -9 13 C-9.33 14.98 -9.66 16.96 -10 19 C-11.3921875 19.12375 -11.3921875 19.12375 -12.8125 19.25 C-16.08509879 19.70257552 -16.08509879 19.70257552 -17.875 22.0625 C-18.24625 22.701875 -18.6175 23.34125 -19 24 C-18.67 24.66 -18.34 25.32 -18 26 C-18.78375 26.268125 -19.5675 26.53625 -20.375 26.8125 C-23.28114923 27.84814432 -23.28114923 27.84814432 -25 31 C-25.35293451 33.18028396 -25.35293451 33.18028396 -25.3125 35.5 C-25.32925781 36.2734375 -25.34601563 37.046875 -25.36328125 37.84375 C-24.91092894 40.52867986 -24.13658295 41.35878405 -22 43 C-21.01 43.33 -20.02 43.66 -19 44 C-18.72414062 44.81855469 -18.44828125 45.63710938 -18.1640625 46.48046875 C-17.77992188 47.31191406 -17.39578125 48.14335938 -17 49 C-14.37633717 50.03770677 -14.37633717 50.03770677 -11.375 50.3125 C-10.37210938 50.45300781 -9.36921875 50.59351563 -8.3359375 50.73828125 C-7.56507813 50.82464844 -6.79421875 50.91101563 -6 51 C-6 51.33 -6 51.66 -6 52 C-11.7575987 52.34545592 -16.08040341 52.38905543 -21 49 C-25.3085997 44.72174255 -27.95562221 41.61828986 -28.0625 35.3125 C-28.041875 34.219375 -28.02125 33.12625 -28 32 C-28.33 34.64 -28.66 37.28 -29 40 C-29.33 40 -29.66 40 -30 40 C-30.57236326 29.08270086 -30.57236326 29.08270086 -27 25 C-26.41573242 24.73654785 -25.83146484 24.4730957 -25.22949219 24.20166016 C-22.18258855 22.55942848 -19.97590251 20.22251802 -17.578125 17.7734375 C-17.07327576 17.26575836 -16.56842651 16.75807922 -16.04827881 16.23501587 C-14.44407904 14.61966158 -12.84699144 12.99747791 -11.25 11.375 C-10.16061893 10.27558302 -9.0707801 9.17661941 -7.98046875 8.078125 C-5.31498115 5.3906398 -2.65584857 2.69700979 0 0 Z " fill="#A143FC" transform="translate(266,509)"/>
<path d="M0 0 C4.29631838 2.52175209 6.26918726 5.35413423 8 10 C8.57196281 15.33831955 7.72728102 18.42594377 5 23 C2.96848538 24.97871191 1.01342602 26.74077033 -1.1875 28.5 C-1.76685303 28.9734082 -2.34620605 29.44681641 -2.94311523 29.93457031 C-4.09487701 30.871129 -5.2507855 31.80261526 -6.41113281 32.72851562 C-7.7852106 33.82811567 -9.14055053 34.95105467 -10.4921875 36.078125 C-11.17539062 36.62984375 -11.85859375 37.1815625 -12.5625 37.75 C-13.14128906 38.21921875 -13.72007812 38.6884375 -14.31640625 39.171875 C-16.55576875 40.27337117 -17.66694978 39.67938326 -20 39 C-19.55197021 38.66790527 -19.10394043 38.33581055 -18.64233398 37.99365234 C-16.57207457 36.45675061 -14.50478432 34.91590091 -12.4375 33.375 C-11.73302734 32.85292969 -11.02855469 32.33085938 -10.30273438 31.79296875 C-0.58261815 25.42688347 -0.58261815 25.42688347 5 16 C5.05067107 11.78585602 4.72501689 8.91211803 2.0625 5.5625 C-1.143131 3.13399167 -3.59071003 2.50708177 -7.66015625 2.55859375 C-12.45267854 3.46269228 -16.15015016 6.65548729 -20 9.5 C-20.87011719 10.12003906 -21.74023438 10.74007812 -22.63671875 11.37890625 C-24.77041302 12.90297359 -26.89019082 14.4431239 -29 16 C-29.66 15.67 -30.32 15.34 -31 15 C-27.15214936 10.86188596 -23.04459169 7.81599151 -18.3125 4.75 C-17.63638672 4.30398438 -16.96027344 3.85796875 -16.26367188 3.3984375 C-10.11333824 -0.64058757 -7.19179936 -1.59540783 0 0 Z " fill="#DB79FE" transform="translate(687,542)"/>
<path d="M0 0 C5.22259509 1.54418076 10.4265505 3.1339405 15.61279297 4.79663086 C29.00642237 9.0623767 42.3416669 12.22896166 56.234375 14.38671875 C58.18038983 14.7036527 60.1291515 15.03282884 62.04003906 15.51855469 C76.75228685 19.13247505 94.00174889 17.10345817 109 17 C109 17.66 109 18.32 109 19 C70.29158033 19.93422222 35.49113929 15.64787968 -1 2 C-0.67 1.34 -0.34 0.68 0 0 Z " fill="#AC65FE" transform="translate(418,583)"/>
<path d="M0 0 C6.06355409 0.54310745 11.2027803 1.88941541 16.875 4.0625 C17.70161133 4.37485596 18.52822266 4.68721191 19.37988281 5.0090332 C32.29345821 9.95792625 44.70819527 15.72990918 57 22.0625 C58.41490723 22.78602661 58.41490723 22.78602661 59.85839844 23.52416992 C66.27322903 26.88272886 72.16552879 30.71511245 78 35 C76.14794922 35.58300781 76.14794922 35.58300781 74 36 C71.6328125 34.671875 71.6328125 34.671875 69.125 32.75 C65.53903954 30.0296162 62.05225519 27.95850652 58 26 C56.78425301 25.34632551 55.57220902 24.68573298 54.36328125 24.01953125 C37.13697997 14.5994981 19.0516393 6.86424833 0 2 C0 1.34 0 0.68 0 0 Z " fill="#FE9BFE" transform="translate(579,436)"/>
<path d="M0 0 C4.25898281 0.51147138 8.50276325 1.06414569 12.7421875 1.71875 C22.33167523 3.1859686 31.78212939 4.37402821 41.48974609 4.62109375 C46.79748765 4.79748765 46.79748765 4.79748765 49 7 C49.22705078 9.33837891 49.22705078 9.33837891 49.1953125 12.2265625 C49.18886719 13.2578125 49.18242187 14.2890625 49.17578125 15.3515625 C49.15902344 16.43179688 49.14226562 17.51203125 49.125 18.625 C49.11597656 19.71296875 49.10695313 20.8009375 49.09765625 21.921875 C49.07403409 24.61480152 49.04109556 27.30729255 49 30 C48.67 30 48.34 30 48 30 C47.67 33.63 47.34 37.26 47 41 C46.67 41 46.34 41 46 41 C46 30.11 46 19.22 46 8 C41.7925 7.8453125 41.7925 7.8453125 37.5 7.6875 C29.64256833 7.33083809 22.18670885 6.28611702 14.4921875 4.69921875 C10.329345 3.86571897 6.22541973 3.37726962 2 3 C2 2.34 2 1.68 2 1 C1.34 0.67 0.68 0.34 0 0 Z " fill="#B664FF" transform="translate(451,621)"/>
<path d="M0 0 C0.33 0 0.66 0 1 0 C1.72429256 6.22891598 -0.29298169 10.84752284 -2.63671875 16.578125 C-3.93370636 19.83360106 -5.01861447 23.09373917 -6.0625 26.4375 C-7.9872656 32.25013873 -9.55140398 36.36760265 -14.8125 39.875 C-19.27621188 41.45042772 -22.68578285 41.98280728 -27.15234375 40.0859375 C-30.67253606 38.11259281 -32.64372251 36.66980169 -34.5625 33.0625 C-35.03427572 29.76006996 -34.76984144 27.23333404 -34 24 C-33.67 24 -33.34 24 -33 24 C-32.90203125 24.60328125 -32.8040625 25.2065625 -32.703125 25.828125 C-32.02861941 29.43324109 -31.3944882 32.36881889 -29.4375 35.5 C-25.86293849 37.69973016 -22.18244356 38.38791635 -18 38 C-15.23452627 36.93667955 -13.54426529 35.94748665 -12.0456543 33.33862305 C-11.12315854 31.20968528 -10.32908185 29.06490488 -9.5625 26.875 C-9.12635376 25.69284912 -9.12635376 25.69284912 -8.68139648 24.48681641 C-7.76888743 21.99752537 -6.88239165 19.50010967 -6 17 C-5.4065951 15.34362633 -4.81285159 13.68737391 -4.21875 12.03125 C-2.7903206 8.02834972 -1.38816386 4.01703094 0 0 Z " fill="#C268FF" transform="translate(446,622)"/>
<path d="M0 0 C2.67456717 0.37792797 3.80611814 0.79766916 5.703125 2.77734375 C6.21359375 3.49019531 6.7240625 4.20304688 7.25 4.9375 C7.77078125 5.64777344 8.2915625 6.35804688 8.828125 7.08984375 C10 9 10 9 10 11 C10.99 11.33 11.98 11.66 13 12 C13 12.99 13 13.98 13 15 C13.66 15 14.32 15 15 15 C18.26054614 19.19816433 20.71125272 23.4512646 21.6875 28.6875 C20.56727892 34.08492884 17.81076992 37.39042674 13.75 41 C9.71024703 42.46900108 6.16339628 41.75285815 2 41 C2 40.67 2 40.34 2 40 C2.66386719 39.91363281 3.32773437 39.82726562 4.01171875 39.73828125 C8.33234945 39.05076483 11.43484353 38.37300327 15.125 35.9375 C17.25911542 32.5940525 18.02309258 30.66468602 17.8125 26.72265625 C15.91722069 20.37164819 11.07482944 15.12346535 7 10 C6.26652344 9.05511719 5.53304687 8.11023438 4.77734375 7.13671875 C3.5892985 5.60714099 2.39161732 4.08494233 1.1796875 2.57421875 C0 1 0 1 0 0 Z " fill="#DF79FE" transform="translate(667,585)"/>
<path d="M0 0 C2.2945006 2.2945006 2.55759009 3.51104006 3.33203125 6.61328125 C3.57373047 7.53173828 3.81542969 8.45019531 4.06445312 9.39648438 C4.55961131 11.32669632 5.04671703 13.25899349 5.52539062 15.19335938 C7.03897157 20.8782264 8.31355114 24.33989099 13 28 C16.50033413 29.75016707 20.27738978 28.83609427 24 28 C27.44351867 25.79261624 28.25675219 23.56758512 29.25 19.75 C29.4975 18.5125 29.745 17.275 30 16 C30.33 16 30.66 16 31 16 C31.4346406 19.10457569 31.5889479 21.90928194 31 25 C28.5504556 28.12461569 25.53151185 30.23424407 22 32 C16.82429853 32.43861877 12.94161458 32.34263601 8.53125 29.42578125 C1.86978907 23.22314543 1.26726827 11.54446032 0 3 C0 2.01 0 1.02 0 0 Z " fill="#CD64FF" transform="translate(581,631)"/>
<path d="M0 0 C0 0.33 0 0.66 0 1 C-13.25448349 3.86215068 -26.30805069 4.28712036 -39.8125 4.25 C-41.07782562 4.24842896 -41.07782562 4.24842896 -42.36871338 4.24682617 C-44.81495431 4.24041354 -47.26087752 4.22439604 -49.70703125 4.203125 C-50.80461006 4.19656891 -50.80461006 4.19656891 -51.92436218 4.18988037 C-56.38180216 4.12915204 -60.61274211 3.71702012 -65 3 C-65 2.67 -65 2.34 -65 2 C-45.695 2.495 -45.695 2.495 -26 3 C-26 2.34 -26 1.68 -26 1 C-8.14350797 -0.14806378 -8.14350797 -0.14806378 0 0 Z " fill="#CD74FF" transform="translate(553,599)"/>
<path d="M0 0 C1.02811829 3.08435486 1.03766151 4.74925161 0.75 7.9375 C0.68296875 8.79214844 0.6159375 9.64679687 0.546875 10.52734375 C-0.07924752 13.35831199 -1.16251118 14.7931191 -3 17 C-4.07254351 19.26225382 -4.07254351 19.26225382 -5 22 C-5.26039063 22.6496875 -5.52078125 23.299375 -5.7890625 23.96875 C-7.97246978 29.76396184 -8.3472399 34.83970701 -8 41 C-8.66 40.67 -9.32 40.34 -10 40 C-10.6328125 37.27734375 -10.6328125 37.27734375 -11.125 33.9375 C-11.29257812 32.83277344 -11.46015625 31.72804688 -11.6328125 30.58984375 C-11.75398438 29.73519531 -11.87515625 28.88054688 -12 28 C-11.34 28 -10.68 28 -10 28 C-8.89342006 25.02172432 -7.79019466 22.04221615 -6.6875 19.0625 C-6.37876953 18.23169922 -6.07003906 17.40089844 -5.75195312 16.54492188 C-3.72581131 11.06367508 -1.81163129 5.55583728 0 0 Z " fill="#5C40FB" transform="translate(424,615)"/>
<path d="M0 0 C3.44235012 1.36756731 6.86634069 2.77238881 10.28125 4.20703125 C26.05275908 10.82331432 26.05275908 10.82331432 42 17 C41.34 17.66 40.68 18.32 40 19 C32.86637418 16.51304788 25.8330719 13.78754199 18.8125 11 C17.96977539 10.66806641 17.12705078 10.33613281 16.25878906 9.99414062 C11.02911633 7.90555418 5.91412611 5.76036982 1 3 C0.67 2.01 0.34 1.02 0 0 Z " fill="#C063FF" transform="translate(380,595)"/>
<path d="M0 0 C-1.45855647 3.68646141 -3.30229045 5.16143971 -6.625 7.25 C-7.44226563 7.77078125 -8.25953125 8.2915625 -9.1015625 8.828125 C-10.04128906 9.40820312 -10.04128906 9.40820312 -11 10 C-10.835 10.61875 -10.67 11.2375 -10.5 11.875 C-10 14 -10 14 -10 16 C-8.70647667 17.69774938 -7.37482707 19.36739286 -6 21 C-6.33 21.66 -6.66 22.32 -7 23 C-7.99 22.34 -8.98 21.68 -10 21 C-10 20.34 -10 19.68 -10 19 C-11.32 18.67 -12.64 18.34 -14 18 C-15.05280216 14.02274741 -14.97764423 10.99945368 -14 7 C-12 5 -12 5 -8.875 4.875 C-7.92625 4.91625 -6.9775 4.9575 -6 5 C-5.67 4.01 -5.34 3.02 -5 2 C-2 0 -2 0 0 0 Z " fill="#9446FD" transform="translate(679,571)"/>
<path d="M0 0 C13.94755216 0.48095007 26.80570423 8.76032138 39 15 C36.32068688 16.33965656 34.74534113 15.57988315 31.98046875 14.73046875 C29.25080788 13.72367076 26.7306042 12.40749758 24.15234375 11.06640625 C21.08730684 9.54779449 17.92624267 8.32688771 14.7421875 7.08203125 C9.79701449 5.13073079 4.90261798 3.05539311 0 1 C0 0.67 0 0.34 0 0 Z " fill="#FE96FE" transform="translate(609,407)"/>
<path d="M0 0 C0.33 0 0.66 0 1 0 C1.16755938 3.95075379 1.3281242 7.90172321 1.48217773 11.85302734 C1.56187238 13.85920071 1.64712518 15.86515076 1.73242188 17.87109375 C1.78076172 19.12792969 1.82910156 20.38476562 1.87890625 21.6796875 C1.94960327 23.42354736 1.94960327 23.42354736 2.02172852 25.20263672 C2 28 2 28 1 30 C1.66 30.33 2.32 30.66 3 31 C3 31.66 3 32.32 3 33 C7.82841331 37.10415132 10.94859592 37.41733821 17 37 C16.67 37.66 16.34 38.32 16 39 C7.10535406 39.62176166 7.10535406 39.62176166 3 37.3125 C-0.93652781 32.76088971 -1.22753634 28.8471039 -0.9765625 22.94921875 C-0.95153656 22.29041214 -0.92651062 21.63160553 -0.90072632 20.95283508 C-0.8190354 18.86382617 -0.72225509 16.77583634 -0.625 14.6875 C-0.56670805 13.2650146 -0.50940595 11.84248826 -0.453125 10.41992188 C-0.31353514 6.94606723 -0.16041251 3.47296255 0 0 Z " fill="#623FFB" transform="translate(500,631)"/>
<path d="M0 0 C0.33 0.66 0.66 1.32 1 2 C0.67 2.99 0.34 3.98 0 5 C-0.39680449 10.25765945 0.10501854 13.56102842 3 18 C8.1712552 23.85168352 14.52640102 24.63612363 22 26 C18.63604645 28.2426357 17.10124978 28.2202803 13.1875 27.6015625 C6.55606446 25.77791773 1.92031994 21.4646884 -2 16 C-3.18206661 12.45380016 -2.76796128 10.53019086 -2.125 6.875 C-1.94195312 5.79992187 -1.75890625 4.72484375 -1.5703125 3.6171875 C-1 1 -1 1 0 0 Z " fill="#F06CFE" transform="translate(239,536)"/>
<path d="M0 0 C0.66 0.66 1.32 1.32 2 2 C-23.64669291 14.46414907 -23.64669291 14.46414907 -33 14 C-29.92698816 11.95132544 -27.09155348 10.76768855 -23.65234375 9.43359375 C-23.03984268 9.19463882 -22.42734161 8.9556839 -21.79627991 8.70948792 C-19.84464923 7.94877655 -17.89117403 7.19294628 -15.9375 6.4375 C-13.98062238 5.67757319 -12.02414246 4.91663918 -10.06800842 4.15480042 C-8.29598741 3.46517289 -6.52289647 2.77829648 -4.74975586 2.09155273 C-2.09464085 1.08301065 -2.09464085 1.08301065 0 0 Z " fill="#DA6DFF" transform="translate(635,599)"/>
<path d="M0 0 C6.0546875 -0.1953125 6.0546875 -0.1953125 8 0 C10 2 10 2 10.22705078 4.33837891 C10.21134033 5.76802979 10.21134033 5.76802979 10.1953125 7.2265625 C10.18564453 8.7734375 10.18564453 8.7734375 10.17578125 10.3515625 C10.15902344 11.43179688 10.14226562 12.51203125 10.125 13.625 C10.11597656 14.71296875 10.10695313 15.8009375 10.09765625 16.921875 C10.07403409 19.61480152 10.04109556 22.30729255 10 25 C9.67 25 9.34 25 9 25 C8.67 28.63 8.34 32.26 8 36 C7.67 36 7.34 36 7 36 C7 24.45 7 12.9 7 1 C4.69 1 2.38 1 0 1 C0 0.67 0 0.34 0 0 Z " fill="#AA5BFE" transform="translate(490,626)"/>
<path d="M0 0 C0.8971875 0.309375 0.8971875 0.309375 1.8125 0.625 C1.3184668 0.97280518 0.82443359 1.32061035 0.31542969 1.67895508 C-1.9359892 3.2645097 -4.18675014 4.85099583 -6.4375 6.4375 C-7.21480469 6.98470703 -7.99210937 7.53191406 -8.79296875 8.09570312 C-9.54707031 8.62744141 -10.30117188 9.15917969 -11.078125 9.70703125 C-12.11501465 10.43756714 -12.11501465 10.43756714 -13.17285156 11.18286133 C-15.20069476 12.63444516 -17.19811534 14.12125925 -19.1875 15.625 C-19.8475 15.295 -20.5075 14.965 -21.1875 14.625 C-20.6615625 13.7278125 -20.6615625 13.7278125 -20.125 12.8125 C-18.85445302 10.51686786 -18.85445302 10.51686786 -20.1875 7.625 C-14.7425 7.13 -14.7425 7.13 -9.1875 6.625 C-9.5175 5.305 -9.8475 3.985 -10.1875 2.625 C-9.424375 2.50125 -8.66125 2.3775 -7.875 2.25 C-4.73430311 1.51960537 -3.19650145 -0.54797168 0 0 Z " fill="#D44BFC" transform="translate(364.1875,472.375)"/>
<path d="M0 0 C2.52108103 0.14224587 5.04180403 0.28870121 7.5625 0.4375 C8.26697266 0.47681641 8.97144531 0.51613281 9.69726562 0.55664062 C14.1798541 0.82518279 18.56293497 1.30616197 23 2 C23 2.33 23 2.66 23 3 C13.08491143 4.32708583 3.27410508 3.90715484 -6.6875 3.5625 C-8.37172551 3.50915349 -10.05597038 3.45641446 -11.74023438 3.40429688 C-15.82707965 3.27652921 -19.9135755 3.14055949 -24 3 C-24 2.67 -24 2.34 -24 2 C-16.08 1.67 -8.16 1.34 0 1 C0 0.67 0 0.34 0 0 Z " fill="#F76FFE" transform="translate(525,388)"/>
<path d="M0 0 C0.71800781 0.72445312 1.43601562 1.44890625 2.17578125 2.1953125 C9.60578684 9.57393493 17.23078736 16.25530972 26 22 C25.01 22.33 24.02 22.66 23 23 C14.60305194 18.38167857 6.23862825 11.25029769 0 4 C0 2.68 0 1.36 0 0 Z " fill="#C265FF" transform="translate(331,559)"/>
<path d="M0 0 C6.38732135 0.5451693 11.82996784 2.11462095 17.8125 4.375 C18.65748047 4.67921875 19.50246094 4.9834375 20.37304688 5.296875 C27.16054974 7.81994993 27.16054974 7.81994993 30 11 C28 12 28 12 25.86328125 11.328125 C25.02152344 10.97234375 24.17976562 10.6165625 23.3125 10.25 C22.41015625 9.87488281 21.5078125 9.49976563 20.578125 9.11328125 C18.56331917 8.24325146 16.56041624 7.34564375 14.5625 6.4375 C9.81611764 4.52229308 4.95382402 3.26309075 0 2 C0 1.34 0 0.68 0 0 Z " fill="#FE88FE" transform="translate(579,436)"/>
<path d="M0 0 C1.44099669 2.88199337 0.45496812 4.28157312 -0.546875 7.3046875 C-0.8975 8.36300781 -1.248125 9.42132812 -1.609375 10.51171875 C-1.98578125 11.62160156 -2.3621875 12.73148438 -2.75 13.875 C-3.29140625 15.52822266 -3.29140625 15.52822266 -3.84375 17.21484375 C-4.19953125 18.27574219 -4.5553125 19.33664062 -4.921875 20.4296875 C-5.24768555 21.40147949 -5.57349609 22.37327148 -5.90917969 23.37451172 C-6.98257935 25.95807034 -8.2211196 27.85532702 -10 30 C-11.08893258 26.75319101 -10.94162052 25.0623148 -9.63671875 21.91796875 C-9.32669922 21.15033203 -9.01667969 20.38269531 -8.69726562 19.59179688 C-8.19743164 18.40166992 -8.19743164 18.40166992 -7.6875 17.1875 C-7.04255493 15.61972772 -6.40058022 14.0507299 -5.76171875 12.48046875 C-5.45411621 11.72685059 -5.14651367 10.97323242 -4.82958984 10.19677734 C-4.05356948 8.14185349 -3.44814135 6.11217034 -2.89453125 3.98828125 C-2.59933594 3.00214844 -2.30414063 2.01601563 -2 1 C-1.34 0.67 -0.68 0.34 0 0 Z " fill="#AD63FE" transform="translate(423,615)"/>
<path d="M0 0 C2.64 0.33 5.28 0.66 8 1 C8 3.31 8 5.62 8 8 C10.64 8 13.28 8 16 8 C16 10.31 16 12.62 16 15 C11.01387794 13.5506519 8.49687815 10.71522806 5.1875 6.9375 C4.68541016 6.38255859 4.18332031 5.82761719 3.66601562 5.25585938 C0 1.16089498 0 1.16089498 0 0 Z " fill="#FA55FB" transform="translate(744,544)"/>
<path d="M0 0 C0.99 0 1.98 0 3 0 C3.32613281 1.19496094 3.65226563 2.38992188 3.98828125 3.62109375 C4.42935097 5.22665499 4.87078001 6.83211754 5.3125 8.4375 C5.5381665 9.26193604 5.76383301 10.08637207 5.99633789 10.93579102 C7.16700529 15.16801089 8.41263859 19.31625294 9.9375 23.4375 C10.288125 24.613125 10.63875 25.78875 11 27 C10.34 27.99 9.68 28.98 9 30 C7.86727048 26.69009373 6.74527301 23.37664098 5.625 20.0625 C5.30789063 19.13630859 4.99078125 18.21011719 4.6640625 17.25585938 C2.74024236 11.54451834 1.19955148 5.9068823 0 0 Z " fill="#D072FE" transform="translate(601,616)"/>
<path d="M0 0 C3 1 3 1 4.6875 3 C6.46568777 7.06442918 6.88467265 10.63192877 6 15 C3.5 18.0625 3.5 18.0625 1 20 C0.875 12.25 0.875 12.25 2 10 C1.67953691 7.54606637 1.67953691 7.54606637 1.0625 4.875 C0.86785156 3.96492187 0.67320312 3.05484375 0.47265625 2.1171875 C0.31667969 1.41851563 0.16070313 0.71984375 0 0 Z " fill="#8C42FC" transform="translate(679,603)"/>
<path d="M0 0 C0.66 0 1.32 0 2 0 C0.94612017 6.85021892 -5.06472437 12.87512288 -9.02734375 18.296875 C-11.37552971 21.51458725 -13.69153582 24.75372224 -16 28 C-16.66 27.34 -17.32 26.68 -18 26 C-16.93072266 24.56720703 -16.93072266 24.56720703 -15.83984375 23.10546875 C-10.70410989 16.18331461 -5.75259402 9.29103201 -1.33984375 1.87890625 C-0.89769531 1.25886719 -0.45554687 0.63882813 0 0 Z " fill="#C76CFF" transform="translate(377,595)"/>
<path d="M0 0 C3.82886404 2.82791735 7.63782927 5.64723797 11.25 8.75 C15.05254592 11.86117393 17.85645557 13.19321667 22.75 13.625 C23.54921875 13.69976563 24.3484375 13.77453125 25.171875 13.8515625 C25.77515625 13.90054688 26.3784375 13.94953125 27 14 C25.68 14.33 24.36 14.66 23 15 C23 15.66 23 16.32 23 17 C13.76993463 16.3077451 7.92763164 10.26003517 1.6875 3.98828125 C0 2 0 2 0 0 Z " fill="#FE88FE" transform="translate(744,547)"/>
<path d="M0 0 C7.36570774 -0.34152278 13.86845226 0.57441064 21 2.375 C21.93972656 2.59671875 22.87945313 2.8184375 23.84765625 3.046875 C30.73043155 4.73043155 30.73043155 4.73043155 33 7 C27.26973829 7.31834787 22.97712767 6.52048615 17.54296875 4.734375 C13.71354076 3.62848796 9.96657961 3.31988545 6 3 C6 2.34 6 1.68 6 1 C4.02 1 2.04 1 0 1 C0 0.67 0 0.34 0 0 Z " fill="#FE85FE" transform="translate(545,429)"/>
<path d="M0 0 C1.11375 0.185625 2.2275 0.37125 3.375 0.5625 C6.82568861 1.31680657 6.82568861 1.31680657 9 0 C9.020625 0.763125 9.04125 1.52625 9.0625 2.3125 C9.78620716 5.36795477 9.78620716 5.36795477 13.3125 6.75 C16.75378612 7.9810361 16.75378612 7.9810361 19.375 8.5625 C19.91125 8.706875 20.4475 8.85125 21 9 C21.33 9.66 21.66 10.32 22 11 C21.34 11 20.68 11 20 11 C20 11.66 20 12.32 20 13 C17.0280615 11.87548273 14.66559313 10.77706209 12 9 C11.01 9.33 10.02 9.66 9 10 C9 9.01 9 8.02 9 7 C7.00184197 5.34063127 7.00184197 5.34063127 4.5 3.875 C2.98742349 2.93664235 1.48376208 1.98328677 0 1 C0 0.67 0 0.34 0 0 Z " fill="#FB5CFD" transform="translate(647,464)"/>
<path d="M0 0 C6.25322296 4.03576801 12.186102 8.35437938 18 13 C17.67 13.66 17.34 14.32 17 15 C14.0625 14.25 14.0625 14.25 11 13 C10.125 10.875 10.125 10.875 10 9 C8.68 9.33 7.36 9.66 6 10 C6 8.68 6 7.36 6 6 C4.68 6 3.36 6 2 6 C-0.25 5 -0.25 5 -2 4 C-2 3.01 -2 2.02 -2 1 C-1.34 0.67 -0.68 0.34 0 0 Z " fill="#FB5EFC" transform="translate(690,450)"/>
<path d="M0 0 C-1.1875 1.5 -1.1875 1.5 -3 3 C-4.66608987 3.04384447 -6.33380554 3.0396713 -8 3 C-8.825 3.33 -9.65 3.66 -10.5 4 C-13.22798424 5.0911937 -15.0923201 5.07455589 -18 5 C-18.61875 5.165 -19.2375 5.33 -19.875 5.5 C-22.92221497 6.21699176 -25.88352991 6.05993212 -29 6 C-25.21543693 3.47695796 -21.70949408 2.83473193 -17.3125 1.875 C-16.53455078 1.69324219 -15.75660156 1.51148438 -14.95507812 1.32421875 C-9.85667017 0.19312908 -5.22040823 -0.17898543 0 0 Z " fill="#C446FD" transform="translate(471,394)"/>
<path d="M0 0 C0 0.33 0 0.66 0 1 C-6.00860549 2.05838127 -11.84627561 2.11662571 -17.9375 2.0625 C-18.90751953 2.05798828 -19.87753906 2.05347656 -20.87695312 2.04882812 C-23.2513676 2.0371315 -25.62565021 2.02074086 -28 2 C-28 2.66 -28 3.32 -28 4 C-28.66 4 -29.32 4 -30 4 C-29.67 2.68 -29.34 1.36 -29 0 C-9.65957447 -1.38297872 -9.65957447 -1.38297872 0 0 Z " fill="#BB64FF" transform="translate(552,626)"/>
<path d="M0 0 C6.75 0.75 6.75 0.75 9 3 C9.103125 3.825 9.20625 4.65 9.3125 5.5 C9.6528125 6.7375 9.6528125 6.7375 10 8 C12.45763465 9.32334173 14.20597646 10 17 10 C16.67 11.65 16.34 13.3 16 15 C11.69422496 13.33830526 8.90988145 10.16919694 5.75 6.9375 C5.19570313 6.38255859 4.64140625 5.82761719 4.0703125 5.25585938 C0 1.14043257 0 1.14043257 0 0 Z " fill="#FA5BFA" transform="translate(727,527)"/>
<path d="M0 0 C0.99 0.33 1.98 0.66 3 1 C3.55636673 6.45239399 2.76326533 9.33735429 -0.58984375 13.484375 C-2.66198119 15.71149225 -4.10787674 16.94831881 -7 18 C-10.0548071 17.93303121 -12.99588294 17.54322814 -16 17 C-16 16.67 -16 16.34 -16 16 C-15.33613281 15.91363281 -14.67226563 15.82726562 -13.98828125 15.73828125 C-9.68160942 15.05298603 -6.59379442 14.39990236 -2.9375 11.9375 C-0.35793108 8.02654067 -0.11044866 4.60872124 0 0 Z " fill="#E373FE" transform="translate(685,609)"/>
<path d="M0 0 C-0.99 0 -1.98 0 -3 0 C-3 0.66 -3 1.32 -3 2 C-6.55860938 2.870957 -10.12234592 3.71876925 -13.6875 4.5625 C-15.19860352 4.9327832 -15.19860352 4.9327832 -16.74023438 5.31054688 C-17.71669922 5.53935547 -18.69316406 5.76816406 -19.69921875 6.00390625 C-20.59471436 6.21861572 -21.49020996 6.4333252 -22.4128418 6.65454102 C-25.21142436 7.02823115 -27.28225814 6.70459974 -30 6 C-30 5.67 -30 5.34 -30 5 C-29.42556152 4.88930176 -28.85112305 4.77860352 -28.25927734 4.66455078 C-25.63036398 4.15550671 -23.00269288 3.64030556 -20.375 3.125 C-19.01955078 2.86396484 -19.01955078 2.86396484 -17.63671875 2.59765625 C-1.50971284 -0.58065878 -1.50971284 -0.58065878 0 0 Z " fill="#BA63FF" transform="translate(578,593)"/>
<path d="M0 0 C2.97 0.33 5.94 0.66 9 1 C9 2.65 9 4.3 9 6 C11.94729537 7.15811388 11.94729537 7.15811388 15 7 C15.66 9.64 16.32 12.28 17 15 C11.02320179 10.70061382 5.29045116 6.13124776 0 1 C0 0.67 0 0.34 0 0 Z " fill="#FB5CFC" transform="translate(703,505)"/>
<path d="M0 0 C2 2 2 2 2 5 C0.576875 5.556875 0.576875 5.556875 -0.875 6.125 C-4.75787892 8.45472735 -4.66247787 9.82024333 -6 14 C-7.86631562 15.93693297 -9.82449792 17.3920202 -12 19 C-12.66 18.67 -13.32 18.34 -14 18 C-12.04428496 15.37304 -10.08498344 12.74877646 -8.125 10.125 C-7.56941406 9.37863281 -7.01382812 8.63226562 -6.44140625 7.86328125 C-5.90644531 7.14785156 -5.37148438 6.43242188 -4.8203125 5.6953125 C-4.08192139 4.7055542 -4.08192139 4.7055542 -3.32861328 3.69580078 C-2 2 -2 2 0 0 Z " fill="#6143FB" transform="translate(357,585)"/>
<path d="M0 0 C-1 3 -1 3 -2.73413086 4.16674805 C-3.47026611 4.52808838 -4.20640137 4.88942871 -4.96484375 5.26171875 C-5.76470703 5.65810547 -6.56457031 6.05449219 -7.38867188 6.46289062 C-8.22978516 6.86701172 -9.07089844 7.27113281 -9.9375 7.6875 C-10.77474609 8.10322266 -11.61199219 8.51894531 -12.47460938 8.94726562 C-18.70539563 12 -18.70539563 12 -21 12 C-21.33 11.01 -21.66 10.02 -22 9 C-19.10765685 8.17361624 -17.11257569 8 -14 8 C-14 7.34 -14 6.68 -14 6 C-13.01 6 -12.02 6 -11 6 C-11 5.34 -11 4.68 -11 4 C-9.6078125 3.566875 -9.6078125 3.566875 -8.1875 3.125 C-5.26107601 2.09214447 -3.05256861 0 0 0 Z " fill="#D148FD" transform="translate(406,448)"/>
<path d="M0 0 C-0.886875 0.433125 -1.77375 0.86625 -2.6875 1.3125 C-5.92199902 2.8410209 -5.92199902 2.8410209 -8.25 4.6875 C-12.40756594 6.67179284 -16.46936513 6.23752843 -21 6 C-20 4 -20 4 -16.54296875 2.67578125 C-15.09373993 2.21314795 -13.64175514 1.75908229 -12.1875 1.3125 C-11.46240234 1.07466797 -10.73730469 0.83683594 -9.99023438 0.59179688 C-6.23364064 -0.58020538 -3.7522388 -1.18998829 0 0 Z " fill="#BC44FC" transform="translate(438,402)"/>
<path d="M0 0 C0.33 0 0.66 0 1 0 C1.09796875 0.60328125 1.1959375 1.2065625 1.296875 1.828125 C2.20178672 6.66472214 2.82251333 9.96182788 7 13 C7.99 13.33 8.98 13.66 10 14 C10 14.66 10 15.32 10 16 C11.98 16 13.96 16 16 16 C16 16.33 16 16.66 16 17 C10.4887969 17.57408366 7.25411087 16.64078848 2.671875 13.48828125 C0.13225965 11.2275489 -0.52394169 9.33240818 -1 6 C-0.625 2.625 -0.625 2.625 0 0 Z " fill="#B461FF" transform="translate(412,646)"/>
<path d="M0 0 C0.66 0.33 1.32 0.66 2 1 C1.175 1.86625 0.35 2.7325 -0.5 3.625 C-2.46077648 5.99126283 -2.97851566 6.85267884 -3.4375 10 C-2.97290684 13.18578166 -2.14482816 15.99482607 -1 19 C-3.62901288 17.47793991 -5.84365964 16.15634036 -8 14 C-8.125 11.375 -8.125 11.375 -8 9 C-7.34 9 -6.68 9 -6 9 C-5.566875 8.071875 -5.13375 7.14375 -4.6875 6.1875 C-3.27961373 3.52815927 -2.23876444 1.91894095 0 0 Z " fill="#6043FA" transform="translate(337,545)"/>
<path d="M0 0 C0.33 0.99 0.66 1.98 1 3 C-0.07421875 4.75390625 -0.07421875 4.75390625 -1.6875 6.5625 C-2.20699219 7.16191406 -2.72648438 7.76132812 -3.26171875 8.37890625 C-6.09801126 11.02398803 -8.10735904 12 -12 12 C-12 11.34 -12 10.68 -12 10 C-10.02 9.34 -8.04 8.68 -6 8 C-6.33 6.35 -6.66 4.7 -7 3 C-6.030625 2.87625 -5.06125 2.7525 -4.0625 2.625 C-2.5465625 2.315625 -2.5465625 2.315625 -1 2 C-0.67 1.34 -0.34 0.68 0 0 Z " fill="#FC57FD" transform="translate(783,549)"/>
<path d="M0 0 C3.80489745 1.49478114 5.66190835 3.69442214 8 7 C9.00496852 10.01490557 9.10335303 12.04181692 9.0625 15.1875 C9.05347656 16.08855469 9.04445313 16.98960937 9.03515625 17.91796875 C9.02355469 18.60503906 9.01195312 19.29210937 9 20 C8.67 20 8.34 20 8 20 C7.34 16.04 6.68 12.08 6 8 C4.02 7.34 2.04 6.68 0 6 C0.185625 5.38125 0.37125 4.7625 0.5625 4.125 C1.23686176 1.95839822 1.23686176 1.95839822 0 0 Z " fill="#FA53FB" transform="translate(776,529)"/>
<path d="M0 0 C2.00948183 0.01778303 4.01668765 0.16786374 6.01953125 0.33203125 C3.3699217 3.96297767 1.00128669 6.23054921 -2.98046875 8.33203125 C-3.64046875 7.34203125 -4.30046875 6.35203125 -4.98046875 5.33203125 C-3.05235036 0.51173527 -3.05235036 0.51173527 0 0 Z " fill="#D54CFA" transform="translate(316.98046875,503.66796875)"/>
<path d="M0 0 C2 2 2 2 2.3125 5.25 C1.91365459 10.03614491 0.50229741 13.1972431 -2.5625 16.875 C-4 18 -4 18 -6 18 C-4.83655664 15.67311328 -3.65616883 13.39168332 -2.375 11.125 C-0.89872987 7.7698406 -0.83571057 5.61436756 -1 2 C-0.67 1.34 -0.34 0.68 0 0 Z " fill="#D76FFF" transform="translate(693,550)"/>
<path d="M0 0 C2.75008135 0.64548853 5.50006756 1.29137766 8.25 1.9375 C9.02730469 2.11990234 9.80460938 2.30230469 10.60546875 2.49023438 C11.35957031 2.66748047 12.11367188 2.84472656 12.890625 3.02734375 C13.58188477 3.18968506 14.27314453 3.35202637 14.98535156 3.51928711 C15.98260254 3.75723999 15.98260254 3.75723999 17 4 C18.05525879 4.18477905 18.05525879 4.18477905 19.13183594 4.37329102 C21 5 21 5 23 8 C21.68 8.33 20.36 8.66 19 9 C19 8.34 19 7.68 19 7 C17.71222656 6.74605469 16.42445313 6.49210937 15.09765625 6.23046875 C13.41912649 5.88351008 11.74074867 5.53581576 10.0625 5.1875 C9.21236328 5.02185547 8.36222656 4.85621094 7.48632812 4.68554688 C6.67744141 4.51474609 5.86855469 4.34394531 5.03515625 4.16796875 C4.2862915 4.01610107 3.53742676 3.8642334 2.76586914 3.70776367 C2.18313232 3.47420166 1.60039551 3.24063965 1 3 C0.67 2.01 0.34 1.02 0 0 Z " fill="#F14AFE" transform="translate(557,428)"/>
<path d="M0 0 C0.33 0 0.66 0 1 0 C1.55172244 3.94087458 1.97852074 7.47683092 -0.2421875 10.93359375 C-3.62064641 14.17971671 -6.23338691 15.35267035 -10.9375 15.375 C-12.29409299 15.27987996 -13.65015829 15.16528674 -15 15 C-15 14.67 -15 14.34 -15 14 C-14.09507812 13.85304688 -14.09507812 13.85304688 -13.171875 13.703125 C-9.54683855 13.02489237 -6.65613854 12.43742569 -3.5625 10.375 C-1.3623756 7.03081092 -0.78405698 3.92028492 0 0 Z " fill="#DD78FF" transform="translate(611,647)"/>
<path d="M0 0 C2 1 2 1 2.81640625 2.93359375 C4.61159107 8.95827162 5.61289283 14.72619413 6 21 C3.16733661 18.16733661 2.54225485 14.75026573 1.4375 11 C0.00365841 5.89152372 0.00365841 5.89152372 -2 1 C-1.34 0.67 -0.68 0.34 0 0 Z " fill="#B35EFE" transform="translate(577,620)"/>
<path d="M0 0 C2.97 0.33 5.94 0.66 9 1 C6.23719462 2.84187025 4.19292174 3.72248277 1.0625 4.6875 C0.20785156 4.95949219 -0.64679688 5.23148437 -1.52734375 5.51171875 C-4.10510574 6.02075548 -5.54449337 5.84888744 -8 5 C-6.68 4.67 -5.36 4.34 -4 4 C-4 3.01 -4 2.02 -4 1 C-2.68 1.33 -1.36 1.66 0 2 C0 1.34 0 0.68 0 0 Z " fill="#D645FE" transform="translate(443,432)"/>
<path d="M0 0 C1.35200437 4.05601311 0.52469124 6.0496636 -1 10 C-3.27730355 12.69135874 -4.78465449 13.87561061 -8.328125 14.23828125 C-10.56782015 14.24884585 -12.76773534 14.17507958 -15 14 C-15 13.67 -15 13.34 -15 13 C-14.09507812 12.88785156 -14.09507812 12.88785156 -13.171875 12.7734375 C-8.7346809 12.0434475 -6.59411345 11.68551551 -3.5625 8.1875 C-2.23822463 5.48597824 -1.0011504 2.83659279 0 0 Z " fill="#D56EFF" transform="translate(437,648)"/>
<path d="M0 0 C2.875 -0.125 2.875 -0.125 6 0 C6.66 0.66 7.32 1.32 8 2 C4.535 4.97 4.535 4.97 1 8 C0.02391783 5.07175348 -0.08226668 3.04386724 0 0 Z " fill="#D54CFA" transform="translate(296,520)"/>
<path d="M0 0 C3.04332765 1.3584202 5.12309151 2.88463024 7.453125 5.2578125 C8.071875 5.88300781 8.690625 6.50820313 9.328125 7.15234375 C9.96234375 7.80332031 10.5965625 8.45429688 11.25 9.125 C11.8996875 9.78371094 12.549375 10.44242187 13.21875 11.12109375 C14.81711727 12.74296643 16.41061897 14.3693281 18 16 C17.67 16.66 17.34 17.32 17 18 C3.05533597 6.11067194 3.05533597 6.11067194 0 0 Z " fill="#FF8AFF" transform="translate(749,498)"/>
<path d="M0 0 C0.66 0.33 1.32 0.66 2 1 C2 1.66 2 2.32 2 3 C-2.83769272 6.6043679 -7.86277186 9.67698799 -14 10 C-12.40311734 6.80623468 -9.16616965 5.42408504 -6 4 C-5.01 4 -4.02 4 -3 4 C-3 3.34 -3 2.68 -3 2 C-2.01 1.34 -1.02 0.68 0 0 Z " fill="#CF64FF" transform="translate(655,556)"/>
<path d="M0 0 C2.25 -0.25 2.25 -0.25 5 0 C7.0625 1.875 7.0625 1.875 9 4 C11.13309192 5.23512079 11.13309192 5.23512079 13 6 C12.67 6.66 12.34 7.32 12 8 C10.18118176 7.43667573 8.36999528 6.84866086 6.5625 6.25 C5.55316406 5.92515625 4.54382813 5.6003125 3.50390625 5.265625 C1 4 1 4 0.15234375 1.859375 C0.10207031 1.24578125 0.05179688 0.6321875 0 0 Z " fill="#F74EFD" transform="translate(580,432)"/>
<path d="M0 0 C4.09305456 1.65296434 7.58983503 3.13546142 11 6 C9.56344146 6.08131463 8.1255517 6.13933559 6.6875 6.1875 C5.48673828 6.23970703 5.48673828 6.23970703 4.26171875 6.29296875 C1.52148416 5.93801608 0.70828921 5.10633718 -1 3 C-0.67 2.01 -0.34 1.02 0 0 Z " fill="#FA59FD" transform="translate(634,418)"/>
<path d="M0 0 C4.05606165 0.46800711 7.46588679 0.87953208 11 3 C9.75 4.5 9.75 4.5 8 6 C6.68 6 5.36 6 4 6 C2.28309476 4.09232751 1.14490236 2.28980473 0 0 Z " fill="#F051FD" transform="translate(589,402)"/>
<path d="M0 0 C-0.75925781 0.25394531 -1.51851562 0.50789062 -2.30078125 0.76953125 C-3.29464844 1.11371094 -4.28851562 1.45789063 -5.3125 1.8125 C-6.79169922 2.31716797 -6.79169922 2.31716797 -8.30078125 2.83203125 C-10.87129759 3.94430967 -12.22191977 4.88208191 -14 7 C-14.66 6.34 -15.32 5.68 -16 5 C-16 4.34 -16 3.68 -16 3 C-14.08802961 2.29954544 -12.17019565 1.615081 -10.25 0.9375 C-9.18265625 0.55464844 -8.1153125 0.17179688 -7.015625 -0.22265625 C-4.07719958 -0.98010011 -2.77651052 -1.07151741 0 0 Z " fill="#6641FC" transform="translate(596,590)"/>
<path d="M0 0 C-0.804375 0.28875 -1.60875 0.5775 -2.4375 0.875 C-5.1326468 1.73262568 -5.1326468 1.73262568 -6 4 C-6.99 4 -7.98 4 -9 4 C-8.67 4.99 -8.34 5.98 -8 7 C-11 6 -11 6 -13 3 C-11.5903653 2.29819469 -10.17192359 1.61406042 -8.75 0.9375 C-7.96109375 0.55464844 -7.1721875 0.17179687 -6.359375 -0.22265625 C-3.74006478 -1.08564091 -2.55144824 -0.93045933 0 0 Z " fill="#BB46FD" transform="translate(416,409)"/>
<path d="M0 0 C9.59453303 0.59453303 9.59453303 0.59453303 13 4 C12 5 12 5 10.0390625 5.01953125 C3.45486726 4.45486726 3.45486726 4.45486726 0.9375 1.9375 C0.628125 1.298125 0.31875 0.65875 0 0 Z " fill="#6840FC" transform="translate(416,656)"/>
<path d="M0 0 C-3.44615385 4.8 -3.44615385 4.8 -6.25 5.8125 C-7.11625 5.9053125 -7.11625 5.9053125 -8 6 C-7.625 3.0625 -7.625 3.0625 -7 0 C-4.3333581 -1.33332095 -2.83319697 -0.67102033 0 0 Z " fill="#C848FA" transform="translate(271,553)"/>
<path d="M0 0 C-1.98 2.31 -3.96 4.62 -6 7 C-7 3 -7 3 -7 0 C-4 -1 -4 -1 0 0 Z " fill="#CC4AFB" transform="translate(287,537)"/>
<path d="M0 0 C0.99 0.33 1.98 0.66 3 1 C-0.3 4.3 -3.6 7.6 -7 11 C-7.33 10.01 -7.66 9.02 -8 8 C-5.36 5.36 -2.72 2.72 0 0 Z " fill="#F583FF" transform="translate(276,496)"/>
<path d="M0 0 C0.99 0.33 1.98 0.66 3 1 C3 1.66 3 2.32 3 3 C4.32 2.67 5.64 2.34 7 2 C7 2.66 7 3.32 7 4 C9.97 4.33 12.94 4.66 16 5 C16 5.33 16 5.66 16 6 C9.7945858 5.51679152 4.00054754 4.66681876 -2 3 C-1.34 2.01 -0.68 1.02 0 0 Z " fill="#613DFD" transform="translate(449,617)"/>
<path d="M0 0 C2.4375 1 2.4375 1 4 2 C3.67 2.99 3.34 3.98 3 5 C2.505 4.67 2.01 4.34 1.5 4 C-2.09090894 2.56363642 -5.14456127 2.87148538 -9 3 C-9 2.34 -9 1.68 -9 1 C-5.97562661 -0.5121867 -3.33758466 -0.17263369 0 0 Z " fill="#D076FF" transform="translate(347,541)"/>
<path d="M0 0 C3.7952131 1.49097658 5.61042731 3.75700849 8 7 C5.125 7.1875 5.125 7.1875 2 7 C0 4 0 4 0 0 Z " fill="#FA5CFA" transform="translate(768,521)"/>
<path d="M0 0 C-1.95245185 1.19714555 -3.91214997 2.38248074 -5.875 3.5625 C-6.96554687 4.22378906 -8.05609375 4.88507813 -9.1796875 5.56640625 C-10.57574219 6.27603516 -10.57574219 6.27603516 -12 7 C-12.66 6.67 -13.32 6.34 -14 6 C-4.91506733 -1.52751564 -4.91506733 -1.52751564 0 0 Z " fill="#F87CFF" transform="translate(372,427)"/>
<path d="M0 0 C-2.26568725 2.26568725 -3.43233985 2.55280451 -6.5 3.25 C-7.2940625 3.44078125 -8.088125 3.6315625 -8.90625 3.828125 C-9.5971875 3.88484375 -10.288125 3.9415625 -11 4 C-11.66 3.34 -12.32 2.68 -13 2 C-11.5882217 1.46605821 -10.17029756 0.94834896 -8.75 0.4375 C-7.96109375 0.14746094 -7.1721875 -0.14257812 -6.359375 -0.44140625 C-3.80896548 -1.04522837 -2.44677771 -0.8473932 0 0 Z " fill="#643FFA" transform="translate(579,595)"/>
<path d="M0 0 C2.31 1.98 4.62 3.96 7 6 C6.67 6.66 6.34 7.32 6 8 C4.35 7.67 2.7 7.34 1 7 C0.67 4.69 0.34 2.38 0 0 Z " fill="#FB5CFA" transform="translate(760,512)"/>
<path d="M0 0 C1.134375 0.020625 2.26875 0.04125 3.4375 0.0625 C3.4375 1.7125 3.4375 3.3625 3.4375 5.0625 C-0.47088866 5.0625 -1.67844107 3.55682124 -4.5625 1.0625 C-3.5625 0.0625 -3.5625 0.0625 0 0 Z " fill="#FB60FB" transform="translate(676.5625,479.9375)"/>
<path d="M0 0 C1.65 0 3.3 0 5 0 C5 0.99 5 1.98 5 3 C5.99 3.33 6.98 3.66 8 4 C8 4.99 8 5.98 8 7 C2.25 5.125 2.25 5.125 0 4 C0 2.68 0 1.36 0 0 Z " fill="#FC56FB" transform="translate(622,448)"/>
<path d="M0 0 C3.87302138 1.14430177 7.00263439 2.23320098 10 5 C10 5.66 10 6.32 10 7 C7.8125 7.4375 7.8125 7.4375 5 7 C3.01558218 4.86004673 1.4976696 2.49824035 0 0 Z " fill="#FB5FFB" transform="translate(662,433)"/>
<path d="M0 0 C0 0.33 0 0.66 0 1 C-7.36487404 1.99862699 -14.57313685 2.10331031 -22 2 C-22 1.67 -22 1.34 -22 1 C-14.38459684 -0.5832711 -7.70185475 -1.26092312 0 0 Z " fill="#DD48FD" transform="translate(509,425)"/>
<path d="M0 0 C0.66 0.33 1.32 0.66 2 1 C2 1.66 2 2.32 2 3 C1.34 3 0.68 3 0 3 C0 4.98 0 6.96 0 9 C-0.99 9.33 -1.98 9.66 -3 10 C-3.36923077 4.58461538 -3.36923077 4.58461538 -1.5 1.625 C-1.005 1.08875 -0.51 0.5525 0 0 Z " fill="#5D3FFA" transform="translate(342,605)"/>
<path d="M0 0 C4.41889613 1.35021826 6.34345343 3.26115668 9 7 C8.67 7.66 8.34 8.32 8 9 C7.01 8.34 6.02 7.68 5 7 C5 6.34 5 5.68 5 5 C3.68 4.67 2.36 4.34 1 4 C0.67 2.68 0.34 1.36 0 0 Z " fill="#8642FB" transform="translate(664,585)"/>
<path d="M0 0 C1.14926266 0.95421808 2.29430541 1.91352045 3.4375 2.875 C4.07558594 3.40867187 4.71367188 3.94234375 5.37109375 4.4921875 C7 6 7 6 8 8 C5.36 7.67 2.72 7.34 0 7 C0 4.69 0 2.38 0 0 Z " fill="#F861F8" transform="translate(736,488)"/>
<path d="M0 0 C3.5219721 -0.08004482 6.61981469 -0.04005702 10 1 C10 1.99 10 2.98 10 4 C10.99 4 11.98 4 13 4 C13 4.66 13 5.32 13 6 C3.40546697 3.10933941 3.40546697 3.10933941 0 0 Z " fill="#F851FC" transform="translate(597,440)"/>
<path d="M0 0 C4.84659077 0.59104765 8.60748167 1.97944157 13 4 C12.67 4.66 12.34 5.32 12 6 C10.35 6 8.7 6 7 6 C7 5.34 7 4.68 7 4 C4.03 3.505 4.03 3.505 1 3 C0.67 2.01 0.34 1.02 0 0 Z " fill="#F554FD" transform="translate(608,408)"/>
<path d="M0 0 C3.63 0.33 7.26 0.66 11 1 C11 1.33 11 1.66 11 2 C4.34362157 3.23839599 -2.2471936 3.09139136 -9 3 C-9 2.67 -9 2.34 -9 2 C-4.545 1.505 -4.545 1.505 0 1 C0 0.67 0 0.34 0 0 Z " fill="#A156FF" transform="translate(541,625)"/>
<path d="M0 0 C0.66 0.33 1.32 0.66 2 1 C1.50769231 8.38461538 1.50769231 8.38461538 -1.0625 11.5 C-1.701875 11.995 -2.34125 12.49 -3 13 C-2.67 11.35 -2.34 9.7 -2 8 C-1.34 8 -0.68 8 0 8 C-0.185625 7.05125 -0.37125 6.1025 -0.5625 5.125 C-1 2 -1 2 0 0 Z " fill="#9E46FD" transform="translate(691,552)"/>
<path d="M0 0 C1.32 0 2.64 0 4 0 C3.4739075 3.78786597 2.61896089 6.17152224 0 9 C-0.66 9 -1.32 9 -2 9 C-2 8.34 -2 7.68 -2 7 C-1.34 7 -0.68 7 0 7 C0 4.69 0 2.38 0 0 Z " fill="#693FFC" transform="translate(432,650)"/>
<path d="M0 0 C1.32 0.33 2.64 0.66 4 1 C1.69 3.31 -0.62 5.62 -3 8 C-3.33 6.68 -3.66 5.36 -4 4 C-3.34 4 -2.68 4 -2 4 C-1.34 2.68 -0.68 1.36 0 0 Z " fill="#CA49FB" transform="translate(276,544)"/>
<path d="M0 0 C-5.84681785 3.1832675 -11.59327195 3.44151381 -18 2 C-18 1.67 -18 1.34 -18 1 C-12.03325384 -0.32594359 -6.07416385 -0.0884587 0 0 Z " fill="#C442FE" transform="translate(490,392)"/>
<path d="M0 0 C0.66 0 1.32 0 2 0 C2.05384521 2.29141286 2.09272087 4.58318188 2.125 6.875 C2.14820313 8.15117188 2.17140625 9.42734375 2.1953125 10.7421875 C2 14 2 14 0 16 C-0.79953138 12.71303767 -1.09658936 11.28976808 0 8 C0.06665376 6.60560336 0.08538199 5.20830125 0.0625 3.8125 C0.041875 2.554375 0.02125 1.29625 0 0 Z " fill="#6738FA" transform="translate(521,648)"/>
<path d="M0 0 C1.98 0 3.96 0 6 0 C5.02433888 1.16959987 4.044375 2.33561177 3.0625 3.5 C2.51722656 4.1496875 1.97195313 4.799375 1.41015625 5.46875 C0.94480469 5.9740625 0.47945313 6.479375 0 7 C-0.33 7 -0.66 7 -1 7 C-0.67 4.69 -0.34 2.38 0 0 Z " fill="#D14BFA" transform="translate(290,528)"/>
<path d="M0 0 C0.99 0.33 1.98 0.66 3 1 C0.03 4.96 0.03 4.96 -3 9 C-3.66 8.67 -4.32 8.34 -5 8 C-3.8141763 4.62496331 -2.72426311 2.35277269 0 0 Z " fill="#B864FE" transform="translate(354,585)"/>
<path d="M0 0 C-2.64 1.98 -5.28 3.96 -8 6 C-7.39816251 3.97954558 -6.72693904 1.97888961 -6 0 C-4 -1 -4 -1 0 0 Z " fill="#D34BFB" transform="translate(314,513)"/>
<path d="M0 0 C5.875 3.75 5.875 3.75 7 6 C4.69 5.67 2.38 5.34 0 5 C-0.5625 3.0625 -0.5625 3.0625 -1 1 C-0.67 0.67 -0.34 0.34 0 0 Z " fill="#FC62FB" transform="translate(729,482)"/>
<path d="M0 0 C0.66 0.33 1.32 0.66 2 1 C2 1.66 2 2.32 2 3 C-1.55760365 5.61588503 -4.64477147 6.49357808 -9 7 C-6.3765992 4.08511023 -3.28183606 2.11496102 0 0 Z " fill="#E86EFF" transform="translate(357,432)"/>
<path d="M0 0 C0.99 0.33 1.98 0.66 3 1 C3 3.31 3 5.62 3 8 C2.01 8.33 1.02 8.66 0 9 C0 6.03 0 3.06 0 0 Z " fill="#F488FF" transform="translate(685,609)"/>
<path d="M0 0 C1.32 0.66 2.64 1.32 4 2 C2.68 3.32 1.36 4.64 0 6 C-0.99 5.67 -1.98 5.34 -3 5 C-2.01 3.35 -1.02 1.7 0 0 Z " fill="#D44AFB" transform="translate(371,464)"/>
<path d="M0 0 C4.10958767 1.45044271 7.43258745 3.51110752 11 6 C9 7 9 7 6.625 6.25 C4.10209078 5.04861466 2.08662864 3.85478101 0 2 C0 1.34 0 0.68 0 0 Z " fill="#673FFB" transform="translate(360,554)"/>
<path d="M0 0 C-1.38009621 3.33523252 -2.84950652 5.18607951 -6 7 C-6.99 6.67 -7.98 6.34 -9 6 C-7.8803014 4.99406757 -6.7540588 3.9954151 -5.625 3 C-4.68527344 2.1646875 -4.68527344 2.1646875 -3.7265625 1.3125 C-2 0 -2 0 0 0 Z " fill="#E87FFF" transform="translate(687,567)"/>
<path d="M0 0 C2.97 0.495 2.97 0.495 6 1 C3.6875 3.5 3.6875 3.5 1 6 C0.01 6 -0.98 6 -2 6 C-1.34 4.02 -0.68 2.04 0 0 Z " fill="#D24DFD" transform="translate(336,488)"/>
<path d="M0 0 C0.66 0 1.32 0 2 0 C2.2475 0.598125 2.495 1.19625 2.75 1.8125 C4.16370012 4.28647521 5.65055383 5.43370255 8 7 C3.68607774 6.5206753 1.83430453 5.2542015 -1 2 C-0.67 1.34 -0.34 0.68 0 0 Z " fill="#6645FC" transform="translate(382,592)"/>
<path d="M0 0 C1.32 0.33 2.64 0.66 4 1 C1.69 2.65 -0.62 4.3 -3 6 C-3.66 5.67 -4.32 5.34 -5 5 C-2.75 2.4375 -2.75 2.4375 0 0 Z " fill="#DE7CFF" transform="translate(661,552)"/>
<path d="M0 0 C3.77545388 1.09068668 6.47043472 1.9083091 9 5 C6.36 4.67 3.72 4.34 1 4 C0.67 2.68 0.34 1.36 0 0 Z " fill="#6641FC" transform="translate(375,564)"/>
<path d="M0 0 C1.11375 0.598125 2.2275 1.19625 3.375 1.8125 C4.00148438 2.14894531 4.62796875 2.48539063 5.2734375 2.83203125 C7 4 7 4 9 7 C6.03 6.505 6.03 6.505 3 6 C2.67 4.68 2.34 3.36 2 2 C1.34 2 0.68 2 0 2 C0 1.34 0 0.68 0 0 Z " fill="#6741FB" transform="translate(350,546)"/>
<path d="M0 0 C1.32 0.66 2.64 1.32 4 2 C-1.625 5 -1.625 5 -5 5 C-5 4.34 -5 3.68 -5 3 C-3.68 3 -2.36 3 -1 3 C-0.67 2.01 -0.34 1.02 0 0 Z " fill="#D247FC" transform="translate(419,441)"/>
<path d="M0 0 C0.78890625 0.12761719 1.5778125 0.25523437 2.390625 0.38671875 C3.18984375 0.50660156 3.9890625 0.62648438 4.8125 0.75 C5.41578125 0.85699219 6.0190625 0.96398437 6.640625 1.07421875 C6.640625 1.40421875 6.640625 1.73421875 6.640625 2.07421875 C0.205625 2.56921875 0.205625 2.56921875 -6.359375 3.07421875 C-2.359375 0.07421875 -2.359375 0.07421875 0 0 Z " fill="#FC6BFF" transform="translate(482.359375,427.92578125)"/>
<path d="M0 0 C0.66 0.99 1.32 1.98 2 3 C1.125 6.1875 1.125 6.1875 0 9 C-1.125 7.3125 -1.125 7.3125 -2 5 C-1.125 2.25 -1.125 2.25 0 0 Z " fill="#A656FF" transform="translate(414,636)"/>
<path d="M0 0 C2.79872437 2.52788007 4.45773019 4.20411134 5 8 C2 7 2 7 0 4 C0 2.68 0 1.36 0 0 Z " fill="#CB6EFF" transform="translate(682,602)"/>
<path d="M0 0 C0.556875 0.28875 1.11375 0.5775 1.6875 0.875 C4.08494645 2.0413253 6.51596939 3.0339881 9 4 C9 4.33 9 4.66 9 5 C5.625 4.75 5.625 4.75 2 4 C0.5625 1.9375 0.5625 1.9375 0 0 Z " fill="#B269FF" transform="translate(382,565)"/>
<path d="M0 0 C3.26460973 1.80412643 4.88929795 2.83394693 7 6 C4 6 4 6 1.8125 4.125 C0 2 0 2 0 0 Z " fill="#D862FF" transform="translate(238,552)"/>
<path d="M0 0 C1.875 0.3125 1.875 0.3125 4 1 C4.66 1.99 5.32 2.98 6 4 C4.68 4 3.36 4 2 4 C1.34 2.68 0.68 1.36 0 0 Z " fill="#FA5CFC" transform="translate(721,520)"/>
<path d="M0 0 C3.375 0.25 3.375 0.25 7 1 C8.4375 3.0625 8.4375 3.0625 9 5 C5.54074837 3.7508258 2.85306797 2.32472205 0 0 Z " fill="#FC57FD" transform="translate(632,456)"/>
<path d="M0 0 C2 0.75 2 0.75 4 3.75 C2.68 4.08 1.36 4.41 0 4.75 C0 4.09 0 3.43 0 2.75 C-1.32 2.09 -2.64 1.43 -4 0.75 C-2 -0.25 -2 -0.25 0 0 Z " fill="#F757FE" transform="translate(576,432.25)"/>
</svg>
